<mxfile host="app.diagrams.net" modified="2023-11-30T08:35:43.881Z" agent="Mozilla/5.0 (Windows NT 10.0; Win64; x64) AppleWebKit/537.36 (KHTML, like Gecko) Chrome/119.0.0.0 Safari/537.36" etag="Qhp4r6dyNXmbKRlXF-GP" version="22.1.5" type="device">
  <diagram id="C5RBs43oDa-KdzZeNtuy" name="Page-1">
    <mxGraphModel dx="1247" dy="1856" grid="1" gridSize="10" guides="1" tooltips="1" connect="1" arrows="1" fold="1" page="1" pageScale="1" pageWidth="827" pageHeight="1169" math="0" shadow="0">
      <root>
        <mxCell id="WIyWlLk6GJQsqaUBKTNV-0" />
        <mxCell id="WIyWlLk6GJQsqaUBKTNV-1" parent="WIyWlLk6GJQsqaUBKTNV-0" />
        <mxCell id="5AxP4BP0D3H59sQrFA8J-167" style="edgeStyle=orthogonalEdgeStyle;rounded=0;orthogonalLoop=1;jettySize=auto;html=1;dashed=1;dashPattern=8 8;entryX=0.5;entryY=1;entryDx=0;entryDy=0;endArrow=block;endFill=0;exitX=1;exitY=0.5;exitDx=0;exitDy=0;" parent="WIyWlLk6GJQsqaUBKTNV-1" source="D1E1PHfLJZQOSFLsfM7y-203" target="zkfFHV4jXpPFQw0GAbJ--0" edge="1">
          <mxGeometry relative="1" as="geometry">
            <mxPoint x="3120" y="-180" as="targetPoint" />
            <mxPoint x="3110" y="380" as="sourcePoint" />
            <Array as="points">
              <mxPoint x="2940" y="388" />
              <mxPoint x="3085" y="388" />
            </Array>
          </mxGeometry>
        </mxCell>
        <mxCell id="zkfFHV4jXpPFQw0GAbJ--0" value="&lt;&lt;interface&gt;&gt;&#xa;Colorable" style="swimlane;fontStyle=2;align=center;verticalAlign=top;childLayout=stackLayout;horizontal=1;startSize=40;horizontalStack=0;resizeParent=1;resizeLast=0;collapsible=1;marginBottom=0;rounded=0;shadow=0;strokeWidth=1;fillColor=#d5e8d4;strokeColor=#82b366;" parent="WIyWlLk6GJQsqaUBKTNV-1" vertex="1">
          <mxGeometry x="3005" y="-340" width="160" height="152" as="geometry">
            <mxRectangle x="230" y="140" width="160" height="26" as="alternateBounds" />
          </mxGeometry>
        </mxCell>
        <mxCell id="zkfFHV4jXpPFQw0GAbJ--5" value="+ setColor(Color ) : void" style="text;align=left;verticalAlign=top;spacingLeft=4;spacingRight=4;overflow=hidden;rotatable=0;points=[[0,0.5],[1,0.5]];portConstraint=eastwest;" parent="zkfFHV4jXpPFQw0GAbJ--0" vertex="1">
          <mxGeometry y="40" width="160" height="26" as="geometry" />
        </mxCell>
        <mxCell id="D1E1PHfLJZQOSFLsfM7y-112" value="+ getColor() : Color" style="text;align=left;verticalAlign=top;spacingLeft=4;spacingRight=4;overflow=hidden;rotatable=0;points=[[0,0.5],[1,0.5]];portConstraint=eastwest;" parent="zkfFHV4jXpPFQw0GAbJ--0" vertex="1">
          <mxGeometry y="66" width="160" height="26" as="geometry" />
        </mxCell>
        <mxCell id="5AxP4BP0D3H59sQrFA8J-127" style="edgeStyle=orthogonalEdgeStyle;rounded=0;orthogonalLoop=1;jettySize=auto;html=1;entryX=0.5;entryY=0;entryDx=0;entryDy=0;endArrow=block;endFill=0;" parent="WIyWlLk6GJQsqaUBKTNV-1" source="4vimgVukNCVbrJqTi2xf-77" target="5AxP4BP0D3H59sQrFA8J-114" edge="1">
          <mxGeometry relative="1" as="geometry">
            <Array as="points">
              <mxPoint x="3858" y="-10" />
              <mxPoint x="3858" y="-113" />
              <mxPoint x="4250" y="-113" />
              <mxPoint x="4250" y="-30" />
              <mxPoint x="4251" y="-30" />
            </Array>
          </mxGeometry>
        </mxCell>
        <mxCell id="8Gm8YDrwoZhlwAj-0fX_-4" style="edgeStyle=orthogonalEdgeStyle;rounded=0;orthogonalLoop=1;jettySize=auto;html=1;exitX=0;exitY=0.5;exitDx=0;exitDy=0;endArrow=diamondThin;endFill=1;endSize=12;dashed=1;dashPattern=8 8;entryX=1;entryY=0.5;entryDx=0;entryDy=0;" parent="WIyWlLk6GJQsqaUBKTNV-1" source="5AxP4BP0D3H59sQrFA8J-112" target="D1E1PHfLJZQOSFLsfM7y-128" edge="1">
          <mxGeometry relative="1" as="geometry">
            <mxPoint x="3620" y="130" as="targetPoint" />
            <Array as="points">
              <mxPoint x="3690" y="150" />
              <mxPoint x="3690" y="152" />
            </Array>
          </mxGeometry>
        </mxCell>
        <mxCell id="8Gm8YDrwoZhlwAj-0fX_-8" value="&amp;lt;&amp;lt;?&amp;gt;&amp;gt;" style="edgeLabel;html=1;align=center;verticalAlign=middle;resizable=0;points=[];" parent="8Gm8YDrwoZhlwAj-0fX_-4" vertex="1" connectable="0">
          <mxGeometry x="-0.24" y="-1" relative="1" as="geometry">
            <mxPoint x="-104" y="-10" as="offset" />
          </mxGeometry>
        </mxCell>
        <mxCell id="4vimgVukNCVbrJqTi2xf-77" value="Element" style="swimlane;fontStyle=2;align=center;verticalAlign=top;childLayout=stackLayout;horizontal=1;startSize=26;horizontalStack=0;resizeParent=1;resizeLast=0;collapsible=1;marginBottom=0;rounded=0;shadow=0;strokeWidth=1;fillColor=#dae8fc;strokeColor=#6c8ebf;" parent="WIyWlLk6GJQsqaUBKTNV-1" vertex="1">
          <mxGeometry x="3330" y="-93" width="215" height="513" as="geometry">
            <mxRectangle x="550" y="140" width="160" height="26" as="alternateBounds" />
          </mxGeometry>
        </mxCell>
        <mxCell id="4vimgVukNCVbrJqTi2xf-81" value="- position : double[]" style="text;align=left;verticalAlign=top;spacingLeft=4;spacingRight=4;overflow=hidden;rotatable=0;points=[[0,0.5],[1,0.5]];portConstraint=eastwest;rounded=0;shadow=0;html=0;" parent="4vimgVukNCVbrJqTi2xf-77" vertex="1">
          <mxGeometry y="26" width="215" height="26" as="geometry" />
        </mxCell>
        <mxCell id="D1E1PHfLJZQOSFLsfM7y-122" value="- rotation : double" style="text;align=left;verticalAlign=top;spacingLeft=4;spacingRight=4;overflow=hidden;rotatable=0;points=[[0,0.5],[1,0.5]];portConstraint=eastwest;rounded=0;shadow=0;html=0;" parent="4vimgVukNCVbrJqTi2xf-77" vertex="1">
          <mxGeometry y="52" width="215" height="26" as="geometry" />
        </mxCell>
        <mxCell id="D1E1PHfLJZQOSFLsfM7y-123" value="- storageHolder : &#xa;Storage&lt;? extends Element&gt;" style="text;align=left;verticalAlign=top;spacingLeft=4;spacingRight=4;overflow=hidden;rotatable=0;points=[[0,0.5],[1,0.5]];portConstraint=eastwest;rounded=0;shadow=0;html=0;" parent="4vimgVukNCVbrJqTi2xf-77" vertex="1">
          <mxGeometry y="78" width="215" height="42" as="geometry" />
        </mxCell>
        <mxCell id="4vimgVukNCVbrJqTi2xf-83" value="" style="line;html=1;strokeWidth=1;align=left;verticalAlign=middle;spacingTop=-1;spacingLeft=3;spacingRight=3;rotatable=0;labelPosition=right;points=[];portConstraint=eastwest;" parent="4vimgVukNCVbrJqTi2xf-77" vertex="1">
          <mxGeometry y="120" width="215" height="8" as="geometry" />
        </mxCell>
        <mxCell id="4vimgVukNCVbrJqTi2xf-85" value="+ Element()" style="text;align=left;verticalAlign=top;spacingLeft=4;spacingRight=4;overflow=hidden;rotatable=0;points=[[0,0.5],[1,0.5]];portConstraint=eastwest;" parent="4vimgVukNCVbrJqTi2xf-77" vertex="1">
          <mxGeometry y="128" width="215" height="26" as="geometry" />
        </mxCell>
        <mxCell id="D1E1PHfLJZQOSFLsfM7y-124" value="+ Element(double[], double)" style="text;align=left;verticalAlign=top;spacingLeft=4;spacingRight=4;overflow=hidden;rotatable=0;points=[[0,0.5],[1,0.5]];portConstraint=eastwest;" parent="4vimgVukNCVbrJqTi2xf-77" vertex="1">
          <mxGeometry y="154" width="215" height="26" as="geometry" />
        </mxCell>
        <mxCell id="D1E1PHfLJZQOSFLsfM7y-125" value="+ resetTransform() : void" style="text;align=left;verticalAlign=top;spacingLeft=4;spacingRight=4;overflow=hidden;rotatable=0;points=[[0,0.5],[1,0.5]];portConstraint=eastwest;" parent="4vimgVukNCVbrJqTi2xf-77" vertex="1">
          <mxGeometry y="180" width="215" height="26" as="geometry" />
        </mxCell>
        <mxCell id="D1E1PHfLJZQOSFLsfM7y-126" value="+ setPosition(double, double) :void" style="text;align=left;verticalAlign=top;spacingLeft=4;spacingRight=4;overflow=hidden;rotatable=0;points=[[0,0.5],[1,0.5]];portConstraint=eastwest;" parent="4vimgVukNCVbrJqTi2xf-77" vertex="1">
          <mxGeometry y="206" width="215" height="26" as="geometry" />
        </mxCell>
        <mxCell id="D1E1PHfLJZQOSFLsfM7y-128" value="+ setPosition(double[]) : void" style="text;align=left;verticalAlign=top;spacingLeft=4;spacingRight=4;overflow=hidden;rotatable=0;points=[[0,0.5],[1,0.5]];portConstraint=eastwest;" parent="4vimgVukNCVbrJqTi2xf-77" vertex="1">
          <mxGeometry y="232" width="215" height="26" as="geometry" />
        </mxCell>
        <mxCell id="D1E1PHfLJZQOSFLsfM7y-129" value="+ setRotation(double) : void" style="text;align=left;verticalAlign=top;spacingLeft=4;spacingRight=4;overflow=hidden;rotatable=0;points=[[0,0.5],[1,0.5]];portConstraint=eastwest;" parent="4vimgVukNCVbrJqTi2xf-77" vertex="1">
          <mxGeometry y="258" width="215" height="24" as="geometry" />
        </mxCell>
        <mxCell id="D1E1PHfLJZQOSFLsfM7y-130" value="+ getRotation() : double" style="text;align=left;verticalAlign=top;spacingLeft=4;spacingRight=4;overflow=hidden;rotatable=0;points=[[0,0.5],[1,0.5]];portConstraint=eastwest;" parent="4vimgVukNCVbrJqTi2xf-77" vertex="1">
          <mxGeometry y="282" width="215" height="24" as="geometry" />
        </mxCell>
        <mxCell id="D1E1PHfLJZQOSFLsfM7y-131" value="+ getPosition() : double[]" style="text;align=left;verticalAlign=top;spacingLeft=4;spacingRight=4;overflow=hidden;rotatable=0;points=[[0,0.5],[1,0.5]];portConstraint=eastwest;" parent="4vimgVukNCVbrJqTi2xf-77" vertex="1">
          <mxGeometry y="306" width="215" height="24" as="geometry" />
        </mxCell>
        <mxCell id="D1E1PHfLJZQOSFLsfM7y-132" value="+ getRelativePosition &#xa;(double, double) : double[]" style="text;align=left;verticalAlign=top;spacingLeft=4;spacingRight=4;overflow=hidden;rotatable=0;points=[[0,0.5],[1,0.5]];portConstraint=eastwest;" parent="4vimgVukNCVbrJqTi2xf-77" vertex="1">
          <mxGeometry y="330" width="215" height="40" as="geometry" />
        </mxCell>
        <mxCell id="D1E1PHfLJZQOSFLsfM7y-133" value="+ distanceTo(ActiveElement ) : double" style="text;align=left;verticalAlign=top;spacingLeft=4;spacingRight=4;overflow=hidden;rotatable=0;points=[[0,0.5],[1,0.5]];portConstraint=eastwest;" parent="4vimgVukNCVbrJqTi2xf-77" vertex="1">
          <mxGeometry y="370" width="215" height="24" as="geometry" />
        </mxCell>
        <mxCell id="D1E1PHfLJZQOSFLsfM7y-134" value="+ mount(Storage&lt;? extends Element&gt;)&#xa; : void" style="text;align=left;verticalAlign=top;spacingLeft=4;spacingRight=4;overflow=hidden;rotatable=0;points=[[0,0.5],[1,0.5]];portConstraint=eastwest;" parent="4vimgVukNCVbrJqTi2xf-77" vertex="1">
          <mxGeometry y="394" width="215" height="36" as="geometry" />
        </mxCell>
        <mxCell id="D1E1PHfLJZQOSFLsfM7y-135" value="+ demount(double[]) : void" style="text;align=left;verticalAlign=top;spacingLeft=4;spacingRight=4;overflow=hidden;rotatable=0;points=[[0,0.5],[1,0.5]];portConstraint=eastwest;" parent="4vimgVukNCVbrJqTi2xf-77" vertex="1">
          <mxGeometry y="430" width="215" height="20" as="geometry" />
        </mxCell>
        <mxCell id="D1E1PHfLJZQOSFLsfM7y-136" value="+ demount() : void" style="text;align=left;verticalAlign=top;spacingLeft=4;spacingRight=4;overflow=hidden;rotatable=0;points=[[0,0.5],[1,0.5]];portConstraint=eastwest;" parent="4vimgVukNCVbrJqTi2xf-77" vertex="1">
          <mxGeometry y="450" width="215" height="20" as="geometry" />
        </mxCell>
        <mxCell id="D1E1PHfLJZQOSFLsfM7y-137" value="+ getStorageHolder() :&#xa;Storage&lt;? extends Element&gt;" style="text;align=left;verticalAlign=top;spacingLeft=4;spacingRight=4;overflow=hidden;rotatable=0;points=[[0,0.5],[1,0.5]];portConstraint=eastwest;" parent="4vimgVukNCVbrJqTi2xf-77" vertex="1">
          <mxGeometry y="470" width="215" height="40" as="geometry" />
        </mxCell>
        <mxCell id="5AxP4BP0D3H59sQrFA8J-168" style="edgeStyle=orthogonalEdgeStyle;rounded=0;orthogonalLoop=1;jettySize=auto;html=1;dashed=1;dashPattern=8 8;entryX=0.5;entryY=1;entryDx=0;entryDy=0;endArrow=block;endFill=0;exitX=1;exitY=0.5;exitDx=0;exitDy=0;" parent="WIyWlLk6GJQsqaUBKTNV-1" source="D1E1PHfLJZQOSFLsfM7y-203" target="4vimgVukNCVbrJqTi2xf-92" edge="1">
          <mxGeometry relative="1" as="geometry">
            <Array as="points">
              <mxPoint x="3275" y="388" />
            </Array>
            <mxPoint x="3230" y="-60" as="targetPoint" />
            <mxPoint x="3100" y="410" as="sourcePoint" />
          </mxGeometry>
        </mxCell>
        <mxCell id="4vimgVukNCVbrJqTi2xf-92" value="&lt;&lt;interface&gt;&gt;&#xa;Drivable" style="swimlane;fontStyle=2;align=center;verticalAlign=top;childLayout=stackLayout;horizontal=1;startSize=40;horizontalStack=0;resizeParent=1;resizeLast=0;collapsible=1;marginBottom=0;rounded=0;shadow=0;strokeWidth=1;fillColor=#d5e8d4;strokeColor=#82b366;" parent="WIyWlLk6GJQsqaUBKTNV-1" vertex="1">
          <mxGeometry x="3195" y="-340" width="160" height="152" as="geometry">
            <mxRectangle x="230" y="140" width="160" height="26" as="alternateBounds" />
          </mxGeometry>
        </mxCell>
        <mxCell id="4vimgVukNCVbrJqTi2xf-97" value="+ turnLeft(double) : void" style="text;align=left;verticalAlign=top;spacingLeft=4;spacingRight=4;overflow=hidden;rotatable=0;points=[[0,0.5],[1,0.5]];portConstraint=eastwest;" parent="4vimgVukNCVbrJqTi2xf-92" vertex="1">
          <mxGeometry y="40" width="160" height="26" as="geometry" />
        </mxCell>
        <mxCell id="D1E1PHfLJZQOSFLsfM7y-113" value="+ turnRight(double) : void" style="text;align=left;verticalAlign=top;spacingLeft=4;spacingRight=4;overflow=hidden;rotatable=0;points=[[0,0.5],[1,0.5]];portConstraint=eastwest;" parent="4vimgVukNCVbrJqTi2xf-92" vertex="1">
          <mxGeometry y="66" width="160" height="26" as="geometry" />
        </mxCell>
        <mxCell id="4vimgVukNCVbrJqTi2xf-98" value="&lt;&lt;interface&gt;&gt;&#xa;Moveable" style="swimlane;fontStyle=2;align=center;verticalAlign=top;childLayout=stackLayout;horizontal=1;startSize=40;horizontalStack=0;resizeParent=1;resizeLast=0;collapsible=1;marginBottom=0;rounded=0;shadow=0;strokeWidth=1;fillColor=#d5e8d4;strokeColor=#82b366;" parent="WIyWlLk6GJQsqaUBKTNV-1" vertex="1">
          <mxGeometry x="3385" y="-340" width="160" height="152" as="geometry">
            <mxRectangle x="230" y="140" width="160" height="26" as="alternateBounds" />
          </mxGeometry>
        </mxCell>
        <mxCell id="4vimgVukNCVbrJqTi2xf-103" value="+ moveTick() : void" style="text;align=left;verticalAlign=top;spacingLeft=4;spacingRight=4;overflow=hidden;rotatable=0;points=[[0,0.5],[1,0.5]];portConstraint=eastwest;" parent="4vimgVukNCVbrJqTi2xf-98" vertex="1">
          <mxGeometry y="40" width="160" height="26" as="geometry" />
        </mxCell>
        <mxCell id="D1E1PHfLJZQOSFLsfM7y-114" value="+ getSpeed() : double" style="text;align=left;verticalAlign=top;spacingLeft=4;spacingRight=4;overflow=hidden;rotatable=0;points=[[0,0.5],[1,0.5]];portConstraint=eastwest;" parent="4vimgVukNCVbrJqTi2xf-98" vertex="1">
          <mxGeometry y="66" width="160" height="26" as="geometry" />
        </mxCell>
        <mxCell id="D1E1PHfLJZQOSFLsfM7y-115" value="+ setSpeed(double) : void" style="text;align=left;verticalAlign=top;spacingLeft=4;spacingRight=4;overflow=hidden;rotatable=0;points=[[0,0.5],[1,0.5]];portConstraint=eastwest;" parent="4vimgVukNCVbrJqTi2xf-98" vertex="1">
          <mxGeometry y="92" width="160" height="28" as="geometry" />
        </mxCell>
        <mxCell id="5AxP4BP0D3H59sQrFA8J-169" style="edgeStyle=orthogonalEdgeStyle;rounded=0;orthogonalLoop=1;jettySize=auto;html=1;entryX=0.5;entryY=1;entryDx=0;entryDy=0;dashed=1;dashPattern=8 8;exitX=1;exitY=0.5;exitDx=0;exitDy=0;endArrow=block;endFill=0;" parent="WIyWlLk6GJQsqaUBKTNV-1" source="4vimgVukNCVbrJqTi2xf-162" target="4vimgVukNCVbrJqTi2xf-104" edge="1">
          <mxGeometry relative="1" as="geometry">
            <mxPoint x="3290" y="460" as="targetPoint" />
            <Array as="points">
              <mxPoint x="3655" y="788" />
            </Array>
            <mxPoint x="3140" y="460" as="sourcePoint" />
          </mxGeometry>
        </mxCell>
        <mxCell id="4vimgVukNCVbrJqTi2xf-104" value="&lt;&lt;interface&gt;&gt;&#xa;Startable" style="swimlane;fontStyle=2;align=center;verticalAlign=top;childLayout=stackLayout;horizontal=1;startSize=40;horizontalStack=0;resizeParent=1;resizeLast=0;collapsible=1;marginBottom=0;rounded=0;shadow=0;strokeWidth=1;fillColor=#d5e8d4;strokeColor=#82b366;" parent="WIyWlLk6GJQsqaUBKTNV-1" vertex="1">
          <mxGeometry x="3575" y="-340" width="160" height="152" as="geometry">
            <mxRectangle x="230" y="140" width="160" height="26" as="alternateBounds" />
          </mxGeometry>
        </mxCell>
        <mxCell id="4vimgVukNCVbrJqTi2xf-109" value="+ start() : void" style="text;align=left;verticalAlign=top;spacingLeft=4;spacingRight=4;overflow=hidden;rotatable=0;points=[[0,0.5],[1,0.5]];portConstraint=eastwest;" parent="4vimgVukNCVbrJqTi2xf-104" vertex="1">
          <mxGeometry y="40" width="160" height="26" as="geometry" />
        </mxCell>
        <mxCell id="D1E1PHfLJZQOSFLsfM7y-116" value="+ stop() : void" style="text;align=left;verticalAlign=top;spacingLeft=4;spacingRight=4;overflow=hidden;rotatable=0;points=[[0,0.5],[1,0.5]];portConstraint=eastwest;" parent="4vimgVukNCVbrJqTi2xf-104" vertex="1">
          <mxGeometry y="66" width="160" height="26" as="geometry" />
        </mxCell>
        <mxCell id="D1E1PHfLJZQOSFLsfM7y-117" value="+ isStarted() : boolean" style="text;align=left;verticalAlign=top;spacingLeft=4;spacingRight=4;overflow=hidden;rotatable=0;points=[[0,0.5],[1,0.5]];portConstraint=eastwest;" parent="4vimgVukNCVbrJqTi2xf-104" vertex="1">
          <mxGeometry y="92" width="160" height="26" as="geometry" />
        </mxCell>
        <mxCell id="8Gm8YDrwoZhlwAj-0fX_-0" style="edgeStyle=orthogonalEdgeStyle;rounded=0;orthogonalLoop=1;jettySize=auto;html=1;entryX=0.5;entryY=0;entryDx=0;entryDy=0;dashed=1;dashPattern=8 8;endArrow=block;endFill=0;exitX=0.5;exitY=0;exitDx=0;exitDy=0;" parent="WIyWlLk6GJQsqaUBKTNV-1" source="4vimgVukNCVbrJqTi2xf-110" target="4vimgVukNCVbrJqTi2xf-98" edge="1">
          <mxGeometry relative="1" as="geometry">
            <Array as="points">
              <mxPoint x="2860" y="-370" />
              <mxPoint x="3465" y="-370" />
            </Array>
          </mxGeometry>
        </mxCell>
        <mxCell id="8Gm8YDrwoZhlwAj-0fX_-12" style="edgeStyle=orthogonalEdgeStyle;rounded=0;orthogonalLoop=1;jettySize=auto;html=1;entryX=0;entryY=0.5;entryDx=0;entryDy=0;endArrow=block;endFill=0;" parent="WIyWlLk6GJQsqaUBKTNV-1" source="4vimgVukNCVbrJqTi2xf-110" target="4vimgVukNCVbrJqTi2xf-77" edge="1">
          <mxGeometry relative="1" as="geometry" />
        </mxCell>
        <mxCell id="4vimgVukNCVbrJqTi2xf-110" value="ActiveElement&#xa;" style="swimlane;fontStyle=2;align=center;verticalAlign=top;childLayout=stackLayout;horizontal=1;startSize=26;horizontalStack=0;resizeParent=1;resizeLast=0;collapsible=1;marginBottom=0;rounded=0;shadow=0;strokeWidth=1;fillColor=#dae8fc;strokeColor=#6c8ebf;" parent="WIyWlLk6GJQsqaUBKTNV-1" vertex="1">
          <mxGeometry x="2750" y="-174" width="220" height="316" as="geometry">
            <mxRectangle x="550" y="140" width="160" height="26" as="alternateBounds" />
          </mxGeometry>
        </mxCell>
        <mxCell id="4vimgVukNCVbrJqTi2xf-113" value="- speed : double" style="text;align=left;verticalAlign=top;spacingLeft=4;spacingRight=4;overflow=hidden;rotatable=0;points=[[0,0.5],[1,0.5]];portConstraint=eastwest;rounded=0;shadow=0;html=0;" parent="4vimgVukNCVbrJqTi2xf-110" vertex="1">
          <mxGeometry y="26" width="220" height="26" as="geometry" />
        </mxCell>
        <mxCell id="D1E1PHfLJZQOSFLsfM7y-138" value="- active : boolean" style="text;align=left;verticalAlign=top;spacingLeft=4;spacingRight=4;overflow=hidden;rotatable=0;points=[[0,0.5],[1,0.5]];portConstraint=eastwest;rounded=0;shadow=0;html=0;" parent="4vimgVukNCVbrJqTi2xf-110" vertex="1">
          <mxGeometry y="52" width="220" height="26" as="geometry" />
        </mxCell>
        <mxCell id="4vimgVukNCVbrJqTi2xf-116" value="" style="line;html=1;strokeWidth=1;align=left;verticalAlign=middle;spacingTop=-1;spacingLeft=3;spacingRight=3;rotatable=0;labelPosition=right;points=[];portConstraint=eastwest;" parent="4vimgVukNCVbrJqTi2xf-110" vertex="1">
          <mxGeometry y="78" width="220" height="8" as="geometry" />
        </mxCell>
        <mxCell id="D1E1PHfLJZQOSFLsfM7y-201" value="+ ActiveElement()" style="text;align=left;verticalAlign=top;spacingLeft=4;spacingRight=4;overflow=hidden;rotatable=0;points=[[0,0.5],[1,0.5]];portConstraint=eastwest;" parent="4vimgVukNCVbrJqTi2xf-110" vertex="1">
          <mxGeometry y="86" width="220" height="26" as="geometry" />
        </mxCell>
        <mxCell id="D1E1PHfLJZQOSFLsfM7y-139" value="+ isInactive() : boolean" style="text;align=left;verticalAlign=top;spacingLeft=4;spacingRight=4;overflow=hidden;rotatable=0;points=[[0,0.5],[1,0.5]];portConstraint=eastwest;" parent="4vimgVukNCVbrJqTi2xf-110" vertex="1">
          <mxGeometry y="112" width="220" height="26" as="geometry" />
        </mxCell>
        <mxCell id="D1E1PHfLJZQOSFLsfM7y-145" value="+ setActive(boolean) : void" style="text;align=left;verticalAlign=top;spacingLeft=4;spacingRight=4;overflow=hidden;rotatable=0;points=[[0,0.5],[1,0.5]];portConstraint=eastwest;" parent="4vimgVukNCVbrJqTi2xf-110" vertex="1">
          <mxGeometry y="138" width="220" height="26" as="geometry" />
        </mxCell>
        <mxCell id="D1E1PHfLJZQOSFLsfM7y-154" value="+ getSpeed() : double" style="text;align=left;verticalAlign=top;spacingLeft=4;spacingRight=4;overflow=hidden;rotatable=0;points=[[0,0.5],[1,0.5]];portConstraint=eastwest;" parent="4vimgVukNCVbrJqTi2xf-110" vertex="1">
          <mxGeometry y="164" width="220" height="26" as="geometry" />
        </mxCell>
        <mxCell id="D1E1PHfLJZQOSFLsfM7y-155" value="+ setSpeed(double) : void" style="text;align=left;verticalAlign=top;spacingLeft=4;spacingRight=4;overflow=hidden;rotatable=0;points=[[0,0.5],[1,0.5]];portConstraint=eastwest;" parent="4vimgVukNCVbrJqTi2xf-110" vertex="1">
          <mxGeometry y="190" width="220" height="28" as="geometry" />
        </mxCell>
        <mxCell id="D1E1PHfLJZQOSFLsfM7y-156" value="+ moveTick() : void" style="text;align=left;verticalAlign=top;spacingLeft=4;spacingRight=4;overflow=hidden;rotatable=0;points=[[0,0.5],[1,0.5]];portConstraint=eastwest;" parent="4vimgVukNCVbrJqTi2xf-110" vertex="1">
          <mxGeometry y="218" width="220" height="26" as="geometry" />
        </mxCell>
        <mxCell id="D1E1PHfLJZQOSFLsfM7y-157" value="+ mount(Storage&lt;? extends Element&gt;)&#xa;: void" style="text;align=left;verticalAlign=top;spacingLeft=4;spacingRight=4;overflow=hidden;rotatable=0;points=[[0,0.5],[1,0.5]];portConstraint=eastwest;" parent="4vimgVukNCVbrJqTi2xf-110" vertex="1">
          <mxGeometry y="244" width="220" height="32" as="geometry" />
        </mxCell>
        <mxCell id="D1E1PHfLJZQOSFLsfM7y-158" value="+ demount(double[]) : void" style="text;align=left;verticalAlign=top;spacingLeft=4;spacingRight=4;overflow=hidden;rotatable=0;points=[[0,0.5],[1,0.5]];portConstraint=eastwest;" parent="4vimgVukNCVbrJqTi2xf-110" vertex="1">
          <mxGeometry y="276" width="220" height="20" as="geometry" />
        </mxCell>
        <mxCell id="D1E1PHfLJZQOSFLsfM7y-159" value="+ demount() : void" style="text;align=left;verticalAlign=top;spacingLeft=4;spacingRight=4;overflow=hidden;rotatable=0;points=[[0,0.5],[1,0.5]];portConstraint=eastwest;" parent="4vimgVukNCVbrJqTi2xf-110" vertex="1">
          <mxGeometry y="296" width="220" height="20" as="geometry" />
        </mxCell>
        <mxCell id="4vimgVukNCVbrJqTi2xf-160" style="edgeStyle=orthogonalEdgeStyle;rounded=0;orthogonalLoop=1;jettySize=auto;html=1;entryX=0.5;entryY=1;entryDx=0;entryDy=0;endArrow=block;endFill=0;" parent="WIyWlLk6GJQsqaUBKTNV-1" source="4vimgVukNCVbrJqTi2xf-126" target="4vimgVukNCVbrJqTi2xf-110" edge="1">
          <mxGeometry relative="1" as="geometry" />
        </mxCell>
        <mxCell id="4vimgVukNCVbrJqTi2xf-126" value="Vehicle" style="swimlane;fontStyle=2;align=center;verticalAlign=top;childLayout=stackLayout;horizontal=1;startSize=26;horizontalStack=0;resizeParent=1;resizeLast=0;collapsible=1;marginBottom=0;rounded=0;shadow=0;strokeWidth=1;fillColor=#dae8fc;strokeColor=#6c8ebf;" parent="WIyWlLk6GJQsqaUBKTNV-1" vertex="1">
          <mxGeometry x="2780" y="182" width="160" height="328" as="geometry">
            <mxRectangle x="550" y="140" width="160" height="26" as="alternateBounds" />
          </mxGeometry>
        </mxCell>
        <mxCell id="4vimgVukNCVbrJqTi2xf-127" value="- modelName : String" style="text;align=left;verticalAlign=top;spacingLeft=4;spacingRight=4;overflow=hidden;rotatable=0;points=[[0,0.5],[1,0.5]];portConstraint=eastwest;rounded=0;shadow=0;html=0;" parent="4vimgVukNCVbrJqTi2xf-126" vertex="1">
          <mxGeometry y="26" width="160" height="26" as="geometry" />
        </mxCell>
        <mxCell id="D1E1PHfLJZQOSFLsfM7y-162" value="- color : Color" style="text;align=left;verticalAlign=top;spacingLeft=4;spacingRight=4;overflow=hidden;rotatable=0;points=[[0,0.5],[1,0.5]];portConstraint=eastwest;rounded=0;shadow=0;html=0;" parent="4vimgVukNCVbrJqTi2xf-126" vertex="1">
          <mxGeometry y="52" width="160" height="30" as="geometry" />
        </mxCell>
        <mxCell id="D1E1PHfLJZQOSFLsfM7y-161" value="- height : double" style="text;align=left;verticalAlign=top;spacingLeft=4;spacingRight=4;overflow=hidden;rotatable=0;points=[[0,0.5],[1,0.5]];portConstraint=eastwest;rounded=0;shadow=0;html=0;" parent="4vimgVukNCVbrJqTi2xf-126" vertex="1">
          <mxGeometry y="82" width="160" height="26" as="geometry" />
        </mxCell>
        <mxCell id="D1E1PHfLJZQOSFLsfM7y-160" value="- weight : double" style="text;align=left;verticalAlign=top;spacingLeft=4;spacingRight=4;overflow=hidden;rotatable=0;points=[[0,0.5],[1,0.5]];portConstraint=eastwest;rounded=0;shadow=0;html=0;" parent="4vimgVukNCVbrJqTi2xf-126" vertex="1">
          <mxGeometry y="108" width="160" height="26" as="geometry" />
        </mxCell>
        <mxCell id="4vimgVukNCVbrJqTi2xf-130" value="" style="line;html=1;strokeWidth=1;align=left;verticalAlign=middle;spacingTop=-1;spacingLeft=3;spacingRight=3;rotatable=0;labelPosition=right;points=[];portConstraint=eastwest;" parent="4vimgVukNCVbrJqTi2xf-126" vertex="1">
          <mxGeometry y="134" width="160" height="8" as="geometry" />
        </mxCell>
        <mxCell id="4vimgVukNCVbrJqTi2xf-131" value="+ getHeight() : double" style="text;align=left;verticalAlign=top;spacingLeft=4;spacingRight=4;overflow=hidden;rotatable=0;points=[[0,0.5],[1,0.5]];portConstraint=eastwest;" parent="4vimgVukNCVbrJqTi2xf-126" vertex="1">
          <mxGeometry y="142" width="160" height="26" as="geometry" />
        </mxCell>
        <mxCell id="D1E1PHfLJZQOSFLsfM7y-202" value="+ getWeight() : double" style="text;align=left;verticalAlign=top;spacingLeft=4;spacingRight=4;overflow=hidden;rotatable=0;points=[[0,0.5],[1,0.5]];portConstraint=eastwest;" parent="4vimgVukNCVbrJqTi2xf-126" vertex="1">
          <mxGeometry y="168" width="160" height="26" as="geometry" />
        </mxCell>
        <mxCell id="D1E1PHfLJZQOSFLsfM7y-203" value="+ getModelName : String" style="text;align=left;verticalAlign=top;spacingLeft=4;spacingRight=4;overflow=hidden;rotatable=0;points=[[0,0.5],[1,0.5]];portConstraint=eastwest;" parent="4vimgVukNCVbrJqTi2xf-126" vertex="1">
          <mxGeometry y="194" width="160" height="26" as="geometry" />
        </mxCell>
        <mxCell id="D1E1PHfLJZQOSFLsfM7y-205" value="+ setColor(Color) : void" style="text;align=left;verticalAlign=top;spacingLeft=4;spacingRight=4;overflow=hidden;rotatable=0;points=[[0,0.5],[1,0.5]];portConstraint=eastwest;" parent="4vimgVukNCVbrJqTi2xf-126" vertex="1">
          <mxGeometry y="220" width="160" height="26" as="geometry" />
        </mxCell>
        <mxCell id="D1E1PHfLJZQOSFLsfM7y-208" value="+ getColor() : Color" style="text;align=left;verticalAlign=top;spacingLeft=4;spacingRight=4;overflow=hidden;rotatable=0;points=[[0,0.5],[1,0.5]];portConstraint=eastwest;" parent="4vimgVukNCVbrJqTi2xf-126" vertex="1">
          <mxGeometry y="246" width="160" height="26" as="geometry" />
        </mxCell>
        <mxCell id="D1E1PHfLJZQOSFLsfM7y-207" value="+ turnLeft(double) : void" style="text;align=left;verticalAlign=top;spacingLeft=4;spacingRight=4;overflow=hidden;rotatable=0;points=[[0,0.5],[1,0.5]];portConstraint=eastwest;" parent="4vimgVukNCVbrJqTi2xf-126" vertex="1">
          <mxGeometry y="272" width="160" height="22" as="geometry" />
        </mxCell>
        <mxCell id="D1E1PHfLJZQOSFLsfM7y-206" value="+ turnRight(double) : void" style="text;align=left;verticalAlign=top;spacingLeft=4;spacingRight=4;overflow=hidden;rotatable=0;points=[[0,0.5],[1,0.5]];portConstraint=eastwest;" parent="4vimgVukNCVbrJqTi2xf-126" vertex="1">
          <mxGeometry y="294" width="160" height="26" as="geometry" />
        </mxCell>
        <mxCell id="5AxP4BP0D3H59sQrFA8J-163" style="edgeStyle=orthogonalEdgeStyle;rounded=0;orthogonalLoop=1;jettySize=auto;html=1;endArrow=block;endFill=0;exitX=0;exitY=0.5;exitDx=0;exitDy=0;entryX=1;entryY=0.5;entryDx=0;entryDy=0;" parent="WIyWlLk6GJQsqaUBKTNV-1" source="4vimgVukNCVbrJqTi2xf-149" target="D1E1PHfLJZQOSFLsfM7y-135" edge="1">
          <mxGeometry relative="1" as="geometry">
            <mxPoint x="3545" y="332" as="targetPoint" />
            <Array as="points">
              <mxPoint x="3630" y="269" />
              <mxPoint x="3630" y="347" />
            </Array>
          </mxGeometry>
        </mxCell>
        <mxCell id="4vimgVukNCVbrJqTi2xf-143" value="WorkShop&#xa;" style="swimlane;fontStyle=0;align=center;verticalAlign=top;childLayout=stackLayout;horizontal=1;startSize=26;horizontalStack=0;resizeParent=1;resizeLast=0;collapsible=1;marginBottom=0;rounded=0;shadow=0;strokeWidth=1;" parent="WIyWlLk6GJQsqaUBKTNV-1" vertex="1">
          <mxGeometry x="3760" y="170" width="180" height="216" as="geometry">
            <mxRectangle x="550" y="140" width="160" height="26" as="alternateBounds" />
          </mxGeometry>
        </mxCell>
        <mxCell id="4vimgVukNCVbrJqTi2xf-146" value="- storage : Storage&lt;T&gt;" style="text;align=left;verticalAlign=top;spacingLeft=4;spacingRight=4;overflow=hidden;rotatable=0;points=[[0,0.5],[1,0.5]];portConstraint=eastwest;rounded=0;shadow=0;html=0;" parent="4vimgVukNCVbrJqTi2xf-143" vertex="1">
          <mxGeometry y="26" width="180" height="26" as="geometry" />
        </mxCell>
        <mxCell id="D1E1PHfLJZQOSFLsfM7y-181" value="- maxVehicleCount : int" style="text;align=left;verticalAlign=top;spacingLeft=4;spacingRight=4;overflow=hidden;rotatable=0;points=[[0,0.5],[1,0.5]];portConstraint=eastwest;rounded=0;shadow=0;html=0;" parent="4vimgVukNCVbrJqTi2xf-143" vertex="1">
          <mxGeometry y="52" width="180" height="26" as="geometry" />
        </mxCell>
        <mxCell id="4vimgVukNCVbrJqTi2xf-147" value="" style="line;html=1;strokeWidth=1;align=left;verticalAlign=middle;spacingTop=-1;spacingLeft=3;spacingRight=3;rotatable=0;labelPosition=right;points=[];portConstraint=eastwest;" parent="4vimgVukNCVbrJqTi2xf-143" vertex="1">
          <mxGeometry y="78" width="180" height="8" as="geometry" />
        </mxCell>
        <mxCell id="4vimgVukNCVbrJqTi2xf-149" value="+ WorkShop(int)" style="text;align=left;verticalAlign=top;spacingLeft=4;spacingRight=4;overflow=hidden;rotatable=0;points=[[0,0.5],[1,0.5]];portConstraint=eastwest;" parent="4vimgVukNCVbrJqTi2xf-143" vertex="1">
          <mxGeometry y="86" width="180" height="26" as="geometry" />
        </mxCell>
        <mxCell id="D1E1PHfLJZQOSFLsfM7y-210" value="+ submit(T vehicle) : void" style="text;align=left;verticalAlign=top;spacingLeft=4;spacingRight=4;overflow=hidden;rotatable=0;points=[[0,0.5],[1,0.5]];portConstraint=eastwest;" parent="4vimgVukNCVbrJqTi2xf-143" vertex="1">
          <mxGeometry y="112" width="180" height="26" as="geometry" />
        </mxCell>
        <mxCell id="D1E1PHfLJZQOSFLsfM7y-211" value="+ retrieve(T vehicle) : void" style="text;align=left;verticalAlign=top;spacingLeft=4;spacingRight=4;overflow=hidden;rotatable=0;points=[[0,0.5],[1,0.5]];portConstraint=eastwest;" parent="4vimgVukNCVbrJqTi2xf-143" vertex="1">
          <mxGeometry y="138" width="180" height="26" as="geometry" />
        </mxCell>
        <mxCell id="D1E1PHfLJZQOSFLsfM7y-212" value="+ getMaxVehicleCount() : int" style="text;align=left;verticalAlign=top;spacingLeft=4;spacingRight=4;overflow=hidden;rotatable=0;points=[[0,0.5],[1,0.5]];portConstraint=eastwest;" parent="4vimgVukNCVbrJqTi2xf-143" vertex="1">
          <mxGeometry y="164" width="180" height="26" as="geometry" />
        </mxCell>
        <mxCell id="D1E1PHfLJZQOSFLsfM7y-213" value="+ getCurrentVehicleCount() : int" style="text;align=left;verticalAlign=top;spacingLeft=4;spacingRight=4;overflow=hidden;rotatable=0;points=[[0,0.5],[1,0.5]];portConstraint=eastwest;" parent="4vimgVukNCVbrJqTi2xf-143" vertex="1">
          <mxGeometry y="190" width="180" height="26" as="geometry" />
        </mxCell>
        <mxCell id="8Gm8YDrwoZhlwAj-0fX_-22" style="edgeStyle=orthogonalEdgeStyle;rounded=0;orthogonalLoop=1;jettySize=auto;html=1;entryX=0.5;entryY=1;entryDx=0;entryDy=0;endArrow=block;endFill=0;" parent="WIyWlLk6GJQsqaUBKTNV-1" source="4vimgVukNCVbrJqTi2xf-162" target="4vimgVukNCVbrJqTi2xf-126" edge="1">
          <mxGeometry relative="1" as="geometry" />
        </mxCell>
        <mxCell id="D1E1PHfLJZQOSFLsfM7y-107" style="edgeStyle=orthogonalEdgeStyle;rounded=0;orthogonalLoop=1;jettySize=auto;html=1;entryX=1.002;entryY=0.615;entryDx=0;entryDy=0;endArrow=diamondThin;endFill=0;entryPerimeter=0;exitX=0;exitY=0.5;exitDx=0;exitDy=0;endSize=12;" parent="WIyWlLk6GJQsqaUBKTNV-1" source="D1E1PHfLJZQOSFLsfM7y-164" target="D1E1PHfLJZQOSFLsfM7y-191" edge="1">
          <mxGeometry relative="1" as="geometry">
            <mxPoint x="1270" y="957.91" as="targetPoint" />
            <mxPoint x="2850" y="700" as="sourcePoint" />
            <Array as="points">
              <mxPoint x="2410" y="609" />
              <mxPoint x="2410" y="610" />
              <mxPoint x="1490" y="610" />
              <mxPoint x="1490" y="770" />
            </Array>
          </mxGeometry>
        </mxCell>
        <mxCell id="4vimgVukNCVbrJqTi2xf-162" value="Car" style="swimlane;fontStyle=2;align=center;verticalAlign=top;childLayout=stackLayout;horizontal=1;startSize=26;horizontalStack=0;resizeParent=1;resizeLast=0;collapsible=1;marginBottom=0;rounded=0;shadow=0;strokeWidth=1;fillColor=#dae8fc;strokeColor=#6c8ebf;" parent="WIyWlLk6GJQsqaUBKTNV-1" vertex="1">
          <mxGeometry x="2895" y="570" width="190" height="436" as="geometry">
            <mxRectangle x="550" y="140" width="160" height="26" as="alternateBounds" />
          </mxGeometry>
        </mxCell>
        <mxCell id="D1E1PHfLJZQOSFLsfM7y-164" value="- nrDoors: int" style="text;align=left;verticalAlign=top;spacingLeft=4;spacingRight=4;overflow=hidden;rotatable=0;points=[[0,0.5],[1,0.5]];portConstraint=eastwest;rounded=0;shadow=0;html=0;" parent="4vimgVukNCVbrJqTi2xf-162" vertex="1">
          <mxGeometry y="26" width="190" height="26" as="geometry" />
        </mxCell>
        <mxCell id="D1E1PHfLJZQOSFLsfM7y-167" value="- engine : Engine" style="text;align=left;verticalAlign=top;spacingLeft=4;spacingRight=4;overflow=hidden;rotatable=0;points=[[0,0.5],[1,0.5]];portConstraint=eastwest;rounded=0;shadow=0;html=0;" parent="4vimgVukNCVbrJqTi2xf-162" vertex="1">
          <mxGeometry y="52" width="190" height="26" as="geometry" />
        </mxCell>
        <mxCell id="D1E1PHfLJZQOSFLsfM7y-166" value="- started : boolean" style="text;align=left;verticalAlign=top;spacingLeft=4;spacingRight=4;overflow=hidden;rotatable=0;points=[[0,0.5],[1,0.5]];portConstraint=eastwest;rounded=0;shadow=0;html=0;" parent="4vimgVukNCVbrJqTi2xf-162" vertex="1">
          <mxGeometry y="78" width="190" height="26" as="geometry" />
        </mxCell>
        <mxCell id="4vimgVukNCVbrJqTi2xf-166" value="" style="line;html=1;strokeWidth=1;align=left;verticalAlign=middle;spacingTop=-1;spacingLeft=3;spacingRight=3;rotatable=0;labelPosition=right;points=[];portConstraint=eastwest;" parent="4vimgVukNCVbrJqTi2xf-162" vertex="1">
          <mxGeometry y="104" width="190" height="8" as="geometry" />
        </mxCell>
        <mxCell id="4vimgVukNCVbrJqTi2xf-167" value="+ Car(int, Engien, String, &#xa;Color, double, dobule)" style="text;align=left;verticalAlign=top;spacingLeft=4;spacingRight=4;overflow=hidden;rotatable=0;points=[[0,0.5],[1,0.5]];portConstraint=eastwest;" parent="4vimgVukNCVbrJqTi2xf-162" vertex="1">
          <mxGeometry y="112" width="190" height="38" as="geometry" />
        </mxCell>
        <mxCell id="D1E1PHfLJZQOSFLsfM7y-232" value="+ getNrDoors() : int" style="text;align=left;verticalAlign=top;spacingLeft=4;spacingRight=4;overflow=hidden;rotatable=0;points=[[0,0.5],[1,0.5]];portConstraint=eastwest;" parent="4vimgVukNCVbrJqTi2xf-162" vertex="1">
          <mxGeometry y="150" width="190" height="26" as="geometry" />
        </mxCell>
        <mxCell id="D1E1PHfLJZQOSFLsfM7y-233" value="+ start() : void" style="text;align=left;verticalAlign=top;spacingLeft=4;spacingRight=4;overflow=hidden;rotatable=0;points=[[0,0.5],[1,0.5]];portConstraint=eastwest;" parent="4vimgVukNCVbrJqTi2xf-162" vertex="1">
          <mxGeometry y="176" width="190" height="26" as="geometry" />
        </mxCell>
        <mxCell id="D1E1PHfLJZQOSFLsfM7y-234" value="+ stop() : void" style="text;align=left;verticalAlign=top;spacingLeft=4;spacingRight=4;overflow=hidden;rotatable=0;points=[[0,0.5],[1,0.5]];portConstraint=eastwest;" parent="4vimgVukNCVbrJqTi2xf-162" vertex="1">
          <mxGeometry y="202" width="190" height="26" as="geometry" />
        </mxCell>
        <mxCell id="D1E1PHfLJZQOSFLsfM7y-237" value="+ isStarted() : boolean" style="text;align=left;verticalAlign=top;spacingLeft=4;spacingRight=4;overflow=hidden;rotatable=0;points=[[0,0.5],[1,0.5]];portConstraint=eastwest;" parent="4vimgVukNCVbrJqTi2xf-162" vertex="1">
          <mxGeometry y="228" width="190" height="26" as="geometry" />
        </mxCell>
        <mxCell id="D1E1PHfLJZQOSFLsfM7y-241" value="- incrementSpeed(double) : void" style="text;align=left;verticalAlign=top;spacingLeft=4;spacingRight=4;overflow=hidden;rotatable=0;points=[[0,0.5],[1,0.5]];portConstraint=eastwest;" parent="4vimgVukNCVbrJqTi2xf-162" vertex="1">
          <mxGeometry y="254" width="190" height="26" as="geometry" />
        </mxCell>
        <mxCell id="D1E1PHfLJZQOSFLsfM7y-240" value="- decrementSpeed(double) : void" style="text;align=left;verticalAlign=top;spacingLeft=4;spacingRight=4;overflow=hidden;rotatable=0;points=[[0,0.5],[1,0.5]];portConstraint=eastwest;" parent="4vimgVukNCVbrJqTi2xf-162" vertex="1">
          <mxGeometry y="280" width="190" height="26" as="geometry" />
        </mxCell>
        <mxCell id="D1E1PHfLJZQOSFLsfM7y-239" value="+ gas(dobule) : void" style="text;align=left;verticalAlign=top;spacingLeft=4;spacingRight=4;overflow=hidden;rotatable=0;points=[[0,0.5],[1,0.5]];portConstraint=eastwest;" parent="4vimgVukNCVbrJqTi2xf-162" vertex="1">
          <mxGeometry y="306" width="190" height="26" as="geometry" />
        </mxCell>
        <mxCell id="D1E1PHfLJZQOSFLsfM7y-238" value="+ brake(double) : void" style="text;align=left;verticalAlign=top;spacingLeft=4;spacingRight=4;overflow=hidden;rotatable=0;points=[[0,0.5],[1,0.5]];portConstraint=eastwest;" parent="4vimgVukNCVbrJqTi2xf-162" vertex="1">
          <mxGeometry y="332" width="190" height="26" as="geometry" />
        </mxCell>
        <mxCell id="D1E1PHfLJZQOSFLsfM7y-236" value="+ getEngine() : Engine" style="text;align=left;verticalAlign=top;spacingLeft=4;spacingRight=4;overflow=hidden;rotatable=0;points=[[0,0.5],[1,0.5]];portConstraint=eastwest;" parent="4vimgVukNCVbrJqTi2xf-162" vertex="1">
          <mxGeometry y="358" width="190" height="26" as="geometry" />
        </mxCell>
        <mxCell id="D1E1PHfLJZQOSFLsfM7y-235" value="+ setEngine(Engine) : void" style="text;align=left;verticalAlign=top;spacingLeft=4;spacingRight=4;overflow=hidden;rotatable=0;points=[[0,0.5],[1,0.5]];portConstraint=eastwest;" parent="4vimgVukNCVbrJqTi2xf-162" vertex="1">
          <mxGeometry y="384" width="190" height="26" as="geometry" />
        </mxCell>
        <mxCell id="D1E1PHfLJZQOSFLsfM7y-242" value="+ getWeight() : double" style="text;align=left;verticalAlign=top;spacingLeft=4;spacingRight=4;overflow=hidden;rotatable=0;points=[[0,0.5],[1,0.5]];portConstraint=eastwest;" parent="4vimgVukNCVbrJqTi2xf-162" vertex="1">
          <mxGeometry y="410" width="190" height="26" as="geometry" />
        </mxCell>
        <mxCell id="8Gm8YDrwoZhlwAj-0fX_-17" style="edgeStyle=orthogonalEdgeStyle;rounded=0;orthogonalLoop=1;jettySize=auto;html=1;endArrow=block;endFill=0;entryX=0.5;entryY=1;entryDx=0;entryDy=0;" parent="WIyWlLk6GJQsqaUBKTNV-1" source="4vimgVukNCVbrJqTi2xf-169" target="4vimgVukNCVbrJqTi2xf-162" edge="1">
          <mxGeometry relative="1" as="geometry">
            <Array as="points">
              <mxPoint x="3250" y="1080" />
              <mxPoint x="2990" y="1080" />
            </Array>
            <mxPoint x="3000" y="830" as="targetPoint" />
          </mxGeometry>
        </mxCell>
        <mxCell id="4vimgVukNCVbrJqTi2xf-169" value="Truck" style="swimlane;fontStyle=2;align=center;verticalAlign=top;childLayout=stackLayout;horizontal=1;startSize=26;horizontalStack=0;resizeParent=1;resizeLast=0;collapsible=1;marginBottom=0;rounded=0;shadow=0;strokeWidth=1;fillColor=#dae8fc;strokeColor=#6c8ebf;" parent="WIyWlLk6GJQsqaUBKTNV-1" vertex="1">
          <mxGeometry x="3170" y="1110" width="180" height="216" as="geometry">
            <mxRectangle x="550" y="140" width="160" height="26" as="alternateBounds" />
          </mxGeometry>
        </mxCell>
        <mxCell id="4vimgVukNCVbrJqTi2xf-170" value="State" style="text;align=left;verticalAlign=top;spacingLeft=4;spacingRight=4;overflow=hidden;rotatable=0;points=[[0,0.5],[1,0.5]];portConstraint=eastwest;rounded=0;shadow=0;html=0;" parent="4vimgVukNCVbrJqTi2xf-169" vertex="1">
          <mxGeometry y="26" width="180" height="26" as="geometry" />
        </mxCell>
        <mxCell id="4vimgVukNCVbrJqTi2xf-173" value="" style="line;html=1;strokeWidth=1;align=left;verticalAlign=middle;spacingTop=-1;spacingLeft=3;spacingRight=3;rotatable=0;labelPosition=right;points=[];portConstraint=eastwest;" parent="4vimgVukNCVbrJqTi2xf-169" vertex="1">
          <mxGeometry y="52" width="180" height="8" as="geometry" />
        </mxCell>
        <mxCell id="D1E1PHfLJZQOSFLsfM7y-244" value="+ Truck(int, int, Engine, &#xa;String, Color, double, double)" style="text;align=left;verticalAlign=top;spacingLeft=4;spacingRight=4;overflow=hidden;rotatable=0;points=[[0,0.5],[1,0.5]];portConstraint=eastwest;" parent="4vimgVukNCVbrJqTi2xf-169" vertex="1">
          <mxGeometry y="60" width="180" height="40" as="geometry" />
        </mxCell>
        <mxCell id="4vimgVukNCVbrJqTi2xf-174" value="# setTrayRetracted(boolean) :&#xa; void" style="text;align=left;verticalAlign=top;spacingLeft=4;spacingRight=4;overflow=hidden;rotatable=0;points=[[0,0.5],[1,0.5]];portConstraint=eastwest;" parent="4vimgVukNCVbrJqTi2xf-169" vertex="1">
          <mxGeometry y="100" width="180" height="40" as="geometry" />
        </mxCell>
        <mxCell id="D1E1PHfLJZQOSFLsfM7y-250" value="# isTrayRetracted() : boolean" style="text;align=left;verticalAlign=top;spacingLeft=4;spacingRight=4;overflow=hidden;rotatable=0;points=[[0,0.5],[1,0.5]];portConstraint=eastwest;" parent="4vimgVukNCVbrJqTi2xf-169" vertex="1">
          <mxGeometry y="140" width="180" height="30" as="geometry" />
        </mxCell>
        <mxCell id="8Gm8YDrwoZhlwAj-0fX_-16" style="edgeStyle=orthogonalEdgeStyle;rounded=0;orthogonalLoop=1;jettySize=auto;html=1;endArrow=block;endFill=0;entryX=0.5;entryY=1;entryDx=0;entryDy=0;" parent="WIyWlLk6GJQsqaUBKTNV-1" source="5AxP4BP0D3H59sQrFA8J-4" target="4vimgVukNCVbrJqTi2xf-162" edge="1">
          <mxGeometry relative="1" as="geometry">
            <Array as="points">
              <mxPoint x="2720" y="1080" />
              <mxPoint x="2990" y="1080" />
            </Array>
            <mxPoint x="2980" y="1030" as="targetPoint" />
          </mxGeometry>
        </mxCell>
        <mxCell id="5AxP4BP0D3H59sQrFA8J-4" value="PassangerCar" style="swimlane;fontStyle=2;align=center;verticalAlign=top;childLayout=stackLayout;horizontal=1;startSize=26;horizontalStack=0;resizeParent=1;resizeLast=0;collapsible=1;marginBottom=0;rounded=0;shadow=0;strokeWidth=1;fillColor=#dae8fc;strokeColor=#6c8ebf;" parent="WIyWlLk6GJQsqaUBKTNV-1" vertex="1">
          <mxGeometry x="2640" y="1110" width="190" height="216" as="geometry">
            <mxRectangle x="550" y="140" width="160" height="26" as="alternateBounds" />
          </mxGeometry>
        </mxCell>
        <mxCell id="5AxP4BP0D3H59sQrFA8J-5" value="- nrSeats : int" style="text;align=left;verticalAlign=top;spacingLeft=4;spacingRight=4;overflow=hidden;rotatable=0;points=[[0,0.5],[1,0.5]];portConstraint=eastwest;rounded=0;shadow=0;html=0;" parent="5AxP4BP0D3H59sQrFA8J-4" vertex="1">
          <mxGeometry y="26" width="190" height="26" as="geometry" />
        </mxCell>
        <mxCell id="5AxP4BP0D3H59sQrFA8J-8" value="" style="line;html=1;strokeWidth=1;align=left;verticalAlign=middle;spacingTop=-1;spacingLeft=3;spacingRight=3;rotatable=0;labelPosition=right;points=[];portConstraint=eastwest;" parent="5AxP4BP0D3H59sQrFA8J-4" vertex="1">
          <mxGeometry y="52" width="190" height="8" as="geometry" />
        </mxCell>
        <mxCell id="5AxP4BP0D3H59sQrFA8J-9" value="+ PassengerCar(int, int, Engine, &#xa;String, Color, double, double)" style="text;align=left;verticalAlign=top;spacingLeft=4;spacingRight=4;overflow=hidden;rotatable=0;points=[[0,0.5],[1,0.5]];portConstraint=eastwest;" parent="5AxP4BP0D3H59sQrFA8J-4" vertex="1">
          <mxGeometry y="60" width="190" height="40" as="geometry" />
        </mxCell>
        <mxCell id="D1E1PHfLJZQOSFLsfM7y-243" value="+ getNrSeats() : int" style="text;align=left;verticalAlign=top;spacingLeft=4;spacingRight=4;overflow=hidden;rotatable=0;points=[[0,0.5],[1,0.5]];portConstraint=eastwest;" parent="5AxP4BP0D3H59sQrFA8J-4" vertex="1">
          <mxGeometry y="100" width="190" height="26" as="geometry" />
        </mxCell>
        <mxCell id="5AxP4BP0D3H59sQrFA8J-29" style="edgeStyle=orthogonalEdgeStyle;rounded=0;orthogonalLoop=1;jettySize=auto;html=1;entryX=0.5;entryY=1;entryDx=0;entryDy=0;endArrow=block;endFill=0;" parent="WIyWlLk6GJQsqaUBKTNV-1" source="5AxP4BP0D3H59sQrFA8J-12" target="5AxP4BP0D3H59sQrFA8J-4" edge="1">
          <mxGeometry relative="1" as="geometry" />
        </mxCell>
        <mxCell id="D1E1PHfLJZQOSFLsfM7y-109" style="edgeStyle=orthogonalEdgeStyle;rounded=0;orthogonalLoop=1;jettySize=auto;html=1;entryX=1;entryY=0.5;entryDx=0;entryDy=0;endArrow=diamondThin;endFill=0;endSize=12;" parent="WIyWlLk6GJQsqaUBKTNV-1" source="5AxP4BP0D3H59sQrFA8J-12" target="i-63GN7wooTN-oHSXO1O-38" edge="1">
          <mxGeometry relative="1" as="geometry">
            <mxPoint x="2010" y="1060" as="targetPoint" />
            <Array as="points">
              <mxPoint x="1490" y="1440" />
              <mxPoint x="1490" y="771" />
            </Array>
          </mxGeometry>
        </mxCell>
        <mxCell id="5AxP4BP0D3H59sQrFA8J-12" value="Volvo240" style="swimlane;fontStyle=0;align=center;verticalAlign=top;childLayout=stackLayout;horizontal=1;startSize=26;horizontalStack=0;resizeParent=1;resizeLast=0;collapsible=1;marginBottom=0;rounded=0;shadow=0;strokeWidth=1;" parent="WIyWlLk6GJQsqaUBKTNV-1" vertex="1">
          <mxGeometry x="2520" y="1390" width="160" height="90" as="geometry">
            <mxRectangle x="550" y="140" width="160" height="26" as="alternateBounds" />
          </mxGeometry>
        </mxCell>
        <mxCell id="5AxP4BP0D3H59sQrFA8J-13" value="State" style="text;align=left;verticalAlign=top;spacingLeft=4;spacingRight=4;overflow=hidden;rotatable=0;points=[[0,0.5],[1,0.5]];portConstraint=eastwest;rounded=0;shadow=0;html=0;" parent="5AxP4BP0D3H59sQrFA8J-12" vertex="1">
          <mxGeometry y="26" width="160" height="26" as="geometry" />
        </mxCell>
        <mxCell id="5AxP4BP0D3H59sQrFA8J-16" value="" style="line;html=1;strokeWidth=1;align=left;verticalAlign=middle;spacingTop=-1;spacingLeft=3;spacingRight=3;rotatable=0;labelPosition=right;points=[];portConstraint=eastwest;" parent="5AxP4BP0D3H59sQrFA8J-12" vertex="1">
          <mxGeometry y="52" width="160" height="8" as="geometry" />
        </mxCell>
        <mxCell id="5AxP4BP0D3H59sQrFA8J-17" value="+ Volvo240()" style="text;align=left;verticalAlign=top;spacingLeft=4;spacingRight=4;overflow=hidden;rotatable=0;points=[[0,0.5],[1,0.5]];portConstraint=eastwest;" parent="5AxP4BP0D3H59sQrFA8J-12" vertex="1">
          <mxGeometry y="60" width="160" height="26" as="geometry" />
        </mxCell>
        <mxCell id="5AxP4BP0D3H59sQrFA8J-31" style="edgeStyle=orthogonalEdgeStyle;rounded=0;orthogonalLoop=1;jettySize=auto;html=1;entryX=0.5;entryY=1;entryDx=0;entryDy=0;endArrow=block;endFill=0;" parent="WIyWlLk6GJQsqaUBKTNV-1" source="5AxP4BP0D3H59sQrFA8J-19" target="5AxP4BP0D3H59sQrFA8J-4" edge="1">
          <mxGeometry relative="1" as="geometry" />
        </mxCell>
        <mxCell id="5AxP4BP0D3H59sQrFA8J-19" value="Saab95" style="swimlane;fontStyle=0;align=center;verticalAlign=top;childLayout=stackLayout;horizontal=1;startSize=26;horizontalStack=0;resizeParent=1;resizeLast=0;collapsible=1;marginBottom=0;rounded=0;shadow=0;strokeWidth=1;" parent="WIyWlLk6GJQsqaUBKTNV-1" vertex="1">
          <mxGeometry x="2770" y="1390" width="160" height="140" as="geometry">
            <mxRectangle x="550" y="140" width="160" height="26" as="alternateBounds" />
          </mxGeometry>
        </mxCell>
        <mxCell id="5AxP4BP0D3H59sQrFA8J-20" value="- turboEngine : TurboEngine " style="text;align=left;verticalAlign=top;spacingLeft=4;spacingRight=4;overflow=hidden;rotatable=0;points=[[0,0.5],[1,0.5]];portConstraint=eastwest;rounded=0;shadow=0;html=0;" parent="5AxP4BP0D3H59sQrFA8J-19" vertex="1">
          <mxGeometry y="26" width="160" height="26" as="geometry" />
        </mxCell>
        <mxCell id="5AxP4BP0D3H59sQrFA8J-23" value="" style="line;html=1;strokeWidth=1;align=left;verticalAlign=middle;spacingTop=-1;spacingLeft=3;spacingRight=3;rotatable=0;labelPosition=right;points=[];portConstraint=eastwest;" parent="5AxP4BP0D3H59sQrFA8J-19" vertex="1">
          <mxGeometry y="52" width="160" height="8" as="geometry" />
        </mxCell>
        <mxCell id="D1E1PHfLJZQOSFLsfM7y-251" value="+ Saab95()" style="text;align=left;verticalAlign=top;spacingLeft=4;spacingRight=4;overflow=hidden;rotatable=0;points=[[0,0.5],[1,0.5]];portConstraint=eastwest;" parent="5AxP4BP0D3H59sQrFA8J-19" vertex="1">
          <mxGeometry y="60" width="160" height="26" as="geometry" />
        </mxCell>
        <mxCell id="D1E1PHfLJZQOSFLsfM7y-252" value="+ setTurboOn() : void" style="text;align=left;verticalAlign=top;spacingLeft=4;spacingRight=4;overflow=hidden;rotatable=0;points=[[0,0.5],[1,0.5]];portConstraint=eastwest;" parent="5AxP4BP0D3H59sQrFA8J-19" vertex="1">
          <mxGeometry y="86" width="160" height="26" as="geometry" />
        </mxCell>
        <mxCell id="D1E1PHfLJZQOSFLsfM7y-253" value="+ setTurboOff() : void" style="text;align=left;verticalAlign=top;spacingLeft=4;spacingRight=4;overflow=hidden;rotatable=0;points=[[0,0.5],[1,0.5]];portConstraint=eastwest;" parent="5AxP4BP0D3H59sQrFA8J-19" vertex="1">
          <mxGeometry y="112" width="160" height="26" as="geometry" />
        </mxCell>
        <mxCell id="5AxP4BP0D3H59sQrFA8J-46" style="edgeStyle=orthogonalEdgeStyle;rounded=0;orthogonalLoop=1;jettySize=auto;html=1;entryX=0.5;entryY=1;entryDx=0;entryDy=0;endArrow=block;endFill=0;" parent="WIyWlLk6GJQsqaUBKTNV-1" source="5AxP4BP0D3H59sQrFA8J-32" target="4vimgVukNCVbrJqTi2xf-169" edge="1">
          <mxGeometry relative="1" as="geometry" />
        </mxCell>
        <mxCell id="5AxP4BP0D3H59sQrFA8J-32" value="ScaniaL280" style="swimlane;fontStyle=0;align=center;verticalAlign=top;childLayout=stackLayout;horizontal=1;startSize=26;horizontalStack=0;resizeParent=1;resizeLast=0;collapsible=1;marginBottom=0;rounded=0;shadow=0;strokeWidth=1;" parent="WIyWlLk6GJQsqaUBKTNV-1" vertex="1">
          <mxGeometry x="3060" y="1390" width="180" height="266" as="geometry">
            <mxRectangle x="550" y="140" width="160" height="26" as="alternateBounds" />
          </mxGeometry>
        </mxCell>
        <mxCell id="5AxP4BP0D3H59sQrFA8J-33" value="- maxTrayAngle : double" style="text;align=left;verticalAlign=top;spacingLeft=4;spacingRight=4;overflow=hidden;rotatable=0;points=[[0,0.5],[1,0.5]];portConstraint=eastwest;rounded=0;shadow=0;html=0;" parent="5AxP4BP0D3H59sQrFA8J-32" vertex="1">
          <mxGeometry y="26" width="180" height="26" as="geometry" />
        </mxCell>
        <mxCell id="D1E1PHfLJZQOSFLsfM7y-171" value="- trayAngle : double" style="text;align=left;verticalAlign=top;spacingLeft=4;spacingRight=4;overflow=hidden;rotatable=0;points=[[0,0.5],[1,0.5]];portConstraint=eastwest;rounded=0;shadow=0;html=0;" parent="5AxP4BP0D3H59sQrFA8J-32" vertex="1">
          <mxGeometry y="52" width="180" height="26" as="geometry" />
        </mxCell>
        <mxCell id="5AxP4BP0D3H59sQrFA8J-36" value="" style="line;html=1;strokeWidth=1;align=left;verticalAlign=middle;spacingTop=-1;spacingLeft=3;spacingRight=3;rotatable=0;labelPosition=right;points=[];portConstraint=eastwest;" parent="5AxP4BP0D3H59sQrFA8J-32" vertex="1">
          <mxGeometry y="78" width="180" height="8" as="geometry" />
        </mxCell>
        <mxCell id="D1E1PHfLJZQOSFLsfM7y-255" value="+ Scania280()" style="text;align=left;verticalAlign=top;spacingLeft=4;spacingRight=4;overflow=hidden;rotatable=0;points=[[0,0.5],[1,0.5]];portConstraint=eastwest;" parent="5AxP4BP0D3H59sQrFA8J-32" vertex="1">
          <mxGeometry y="86" width="180" height="26" as="geometry" />
        </mxCell>
        <mxCell id="D1E1PHfLJZQOSFLsfM7y-270" value="+ getTrayAngle(double ) : void" style="text;align=left;verticalAlign=top;spacingLeft=4;spacingRight=4;overflow=hidden;rotatable=0;points=[[0,0.5],[1,0.5]];portConstraint=eastwest;" parent="5AxP4BP0D3H59sQrFA8J-32" vertex="1">
          <mxGeometry y="112" width="180" height="26" as="geometry" />
        </mxCell>
        <mxCell id="D1E1PHfLJZQOSFLsfM7y-268" value="- setTrayAngle(double ) : void" style="text;align=left;verticalAlign=top;spacingLeft=4;spacingRight=4;overflow=hidden;rotatable=0;points=[[0,0.5],[1,0.5]];portConstraint=eastwest;" parent="5AxP4BP0D3H59sQrFA8J-32" vertex="1">
          <mxGeometry y="138" width="180" height="26" as="geometry" />
        </mxCell>
        <mxCell id="D1E1PHfLJZQOSFLsfM7y-269" value="+ retractTray() : void" style="text;align=left;verticalAlign=top;spacingLeft=4;spacingRight=4;overflow=hidden;rotatable=0;points=[[0,0.5],[1,0.5]];portConstraint=eastwest;" parent="5AxP4BP0D3H59sQrFA8J-32" vertex="1">
          <mxGeometry y="164" width="180" height="26" as="geometry" />
        </mxCell>
        <mxCell id="D1E1PHfLJZQOSFLsfM7y-265" value="+ retractTray() : void" style="text;align=left;verticalAlign=top;spacingLeft=4;spacingRight=4;overflow=hidden;rotatable=0;points=[[0,0.5],[1,0.5]];portConstraint=eastwest;" parent="5AxP4BP0D3H59sQrFA8J-32" vertex="1">
          <mxGeometry y="190" width="180" height="26" as="geometry" />
        </mxCell>
        <mxCell id="D1E1PHfLJZQOSFLsfM7y-266" value="+ extendTray() : void" style="text;align=left;verticalAlign=top;spacingLeft=4;spacingRight=4;overflow=hidden;rotatable=0;points=[[0,0.5],[1,0.5]];portConstraint=eastwest;" parent="5AxP4BP0D3H59sQrFA8J-32" vertex="1">
          <mxGeometry y="216" width="180" height="26" as="geometry" />
        </mxCell>
        <mxCell id="D1E1PHfLJZQOSFLsfM7y-267" value="+ start() : void" style="text;align=left;verticalAlign=top;spacingLeft=4;spacingRight=4;overflow=hidden;rotatable=0;points=[[0,0.5],[1,0.5]];portConstraint=eastwest;" parent="5AxP4BP0D3H59sQrFA8J-32" vertex="1">
          <mxGeometry y="242" width="180" height="24" as="geometry" />
        </mxCell>
        <mxCell id="5AxP4BP0D3H59sQrFA8J-48" style="edgeStyle=orthogonalEdgeStyle;rounded=0;orthogonalLoop=1;jettySize=auto;html=1;entryX=0.5;entryY=1;entryDx=0;entryDy=0;endArrow=block;endFill=0;" parent="WIyWlLk6GJQsqaUBKTNV-1" source="5AxP4BP0D3H59sQrFA8J-39" target="4vimgVukNCVbrJqTi2xf-169" edge="1">
          <mxGeometry relative="1" as="geometry" />
        </mxCell>
        <mxCell id="5AxP4BP0D3H59sQrFA8J-39" value="MANTGX" style="swimlane;fontStyle=0;align=center;verticalAlign=top;childLayout=stackLayout;horizontal=1;startSize=26;horizontalStack=0;resizeParent=1;resizeLast=0;collapsible=1;marginBottom=0;rounded=0;shadow=0;strokeWidth=1;" parent="WIyWlLk6GJQsqaUBKTNV-1" vertex="1">
          <mxGeometry x="3280" y="1390" width="160" height="326" as="geometry">
            <mxRectangle x="550" y="140" width="160" height="26" as="alternateBounds" />
          </mxGeometry>
        </mxCell>
        <mxCell id="5AxP4BP0D3H59sQrFA8J-40" value="- storage : &#xa;StorageStack&lt;Car&gt;" style="text;align=left;verticalAlign=top;spacingLeft=4;spacingRight=4;overflow=hidden;rotatable=0;points=[[0,0.5],[1,0.5]];portConstraint=eastwest;rounded=0;shadow=0;html=0;" parent="5AxP4BP0D3H59sQrFA8J-39" vertex="1">
          <mxGeometry y="26" width="160" height="34" as="geometry" />
        </mxCell>
        <mxCell id="D1E1PHfLJZQOSFLsfM7y-168" value="- maxStorageSize : int" style="text;align=left;verticalAlign=top;spacingLeft=4;spacingRight=4;overflow=hidden;rotatable=0;points=[[0,0.5],[1,0.5]];portConstraint=eastwest;" parent="5AxP4BP0D3H59sQrFA8J-39" vertex="1">
          <mxGeometry y="60" width="160" height="26" as="geometry" />
        </mxCell>
        <mxCell id="D1E1PHfLJZQOSFLsfM7y-169" value="- maxStorageSize : int" style="text;align=left;verticalAlign=top;spacingLeft=4;spacingRight=4;overflow=hidden;rotatable=0;points=[[0,0.5],[1,0.5]];portConstraint=eastwest;" parent="5AxP4BP0D3H59sQrFA8J-39" vertex="1">
          <mxGeometry y="86" width="160" height="26" as="geometry" />
        </mxCell>
        <mxCell id="D1E1PHfLJZQOSFLsfM7y-170" value="- maxHeight : double" style="text;align=left;verticalAlign=top;spacingLeft=4;spacingRight=4;overflow=hidden;rotatable=0;points=[[0,0.5],[1,0.5]];portConstraint=eastwest;" parent="5AxP4BP0D3H59sQrFA8J-39" vertex="1">
          <mxGeometry y="112" width="160" height="26" as="geometry" />
        </mxCell>
        <mxCell id="5AxP4BP0D3H59sQrFA8J-43" value="" style="line;html=1;strokeWidth=1;align=left;verticalAlign=middle;spacingTop=-1;spacingLeft=3;spacingRight=3;rotatable=0;labelPosition=right;points=[];portConstraint=eastwest;" parent="5AxP4BP0D3H59sQrFA8J-39" vertex="1">
          <mxGeometry y="138" width="160" height="8" as="geometry" />
        </mxCell>
        <mxCell id="D1E1PHfLJZQOSFLsfM7y-258" value="+ ManTGX()" style="text;align=left;verticalAlign=top;spacingLeft=4;spacingRight=4;overflow=hidden;rotatable=0;points=[[0,0.5],[1,0.5]];portConstraint=eastwest;" parent="5AxP4BP0D3H59sQrFA8J-39" vertex="1">
          <mxGeometry y="146" width="160" height="26" as="geometry" />
        </mxCell>
        <mxCell id="D1E1PHfLJZQOSFLsfM7y-259" value="+ retractTray() : void" style="text;align=left;verticalAlign=top;spacingLeft=4;spacingRight=4;overflow=hidden;rotatable=0;points=[[0,0.5],[1,0.5]];portConstraint=eastwest;" parent="5AxP4BP0D3H59sQrFA8J-39" vertex="1">
          <mxGeometry y="172" width="160" height="26" as="geometry" />
        </mxCell>
        <mxCell id="D1E1PHfLJZQOSFLsfM7y-263" value="+ extendTray() : void" style="text;align=left;verticalAlign=top;spacingLeft=4;spacingRight=4;overflow=hidden;rotatable=0;points=[[0,0.5],[1,0.5]];portConstraint=eastwest;" parent="5AxP4BP0D3H59sQrFA8J-39" vertex="1">
          <mxGeometry y="198" width="160" height="26" as="geometry" />
        </mxCell>
        <mxCell id="D1E1PHfLJZQOSFLsfM7y-264" value="+ loadCar(Car) : void " style="text;align=left;verticalAlign=top;spacingLeft=4;spacingRight=4;overflow=hidden;rotatable=0;points=[[0,0.5],[1,0.5]];portConstraint=eastwest;" parent="5AxP4BP0D3H59sQrFA8J-39" vertex="1">
          <mxGeometry y="224" width="160" height="26" as="geometry" />
        </mxCell>
        <mxCell id="D1E1PHfLJZQOSFLsfM7y-262" value="+ unloadCar() : void" style="text;align=left;verticalAlign=top;spacingLeft=4;spacingRight=4;overflow=hidden;rotatable=0;points=[[0,0.5],[1,0.5]];portConstraint=eastwest;" parent="5AxP4BP0D3H59sQrFA8J-39" vertex="1">
          <mxGeometry y="250" width="160" height="26" as="geometry" />
        </mxCell>
        <mxCell id="D1E1PHfLJZQOSFLsfM7y-261" value="+ start() : void" style="text;align=left;verticalAlign=top;spacingLeft=4;spacingRight=4;overflow=hidden;rotatable=0;points=[[0,0.5],[1,0.5]];portConstraint=eastwest;" parent="5AxP4BP0D3H59sQrFA8J-39" vertex="1">
          <mxGeometry y="276" width="160" height="24" as="geometry" />
        </mxCell>
        <mxCell id="D1E1PHfLJZQOSFLsfM7y-260" value="+ getWeight() : double" style="text;align=left;verticalAlign=top;spacingLeft=4;spacingRight=4;overflow=hidden;rotatable=0;points=[[0,0.5],[1,0.5]];portConstraint=eastwest;" parent="5AxP4BP0D3H59sQrFA8J-39" vertex="1">
          <mxGeometry y="300" width="160" height="26" as="geometry" />
        </mxCell>
        <mxCell id="5AxP4BP0D3H59sQrFA8J-165" style="edgeStyle=orthogonalEdgeStyle;rounded=0;orthogonalLoop=1;jettySize=auto;html=1;endArrow=block;endFill=0;" parent="WIyWlLk6GJQsqaUBKTNV-1" source="5AxP4BP0D3H59sQrFA8J-52" edge="1">
          <mxGeometry relative="1" as="geometry">
            <mxPoint x="2780" y="340" as="targetPoint" />
            <Array as="points">
              <mxPoint x="2600" y="340" />
            </Array>
          </mxGeometry>
        </mxCell>
        <mxCell id="5AxP4BP0D3H59sQrFA8J-52" value="Boat" style="swimlane;fontStyle=2;align=center;verticalAlign=top;childLayout=stackLayout;horizontal=1;startSize=26;horizontalStack=0;resizeParent=1;resizeLast=0;collapsible=1;marginBottom=0;rounded=0;shadow=0;strokeWidth=1;fillColor=#dae8fc;strokeColor=#6c8ebf;" parent="WIyWlLk6GJQsqaUBKTNV-1" vertex="1">
          <mxGeometry x="2510" y="9" width="180" height="130" as="geometry">
            <mxRectangle x="550" y="140" width="160" height="26" as="alternateBounds" />
          </mxGeometry>
        </mxCell>
        <mxCell id="5AxP4BP0D3H59sQrFA8J-53" value="- maximumSwing : double" style="text;align=left;verticalAlign=top;spacingLeft=4;spacingRight=4;overflow=hidden;rotatable=0;points=[[0,0.5],[1,0.5]];portConstraint=eastwest;rounded=0;shadow=0;html=0;" parent="5AxP4BP0D3H59sQrFA8J-52" vertex="1">
          <mxGeometry y="26" width="180" height="26" as="geometry" />
        </mxCell>
        <mxCell id="5AxP4BP0D3H59sQrFA8J-56" value="" style="line;html=1;strokeWidth=1;align=left;verticalAlign=middle;spacingTop=-1;spacingLeft=3;spacingRight=3;rotatable=0;labelPosition=right;points=[];portConstraint=eastwest;" parent="5AxP4BP0D3H59sQrFA8J-52" vertex="1">
          <mxGeometry y="52" width="180" height="8" as="geometry" />
        </mxCell>
        <mxCell id="5AxP4BP0D3H59sQrFA8J-57" value="+ Boat(String, Color, double),&#xa;double, double" style="text;align=left;verticalAlign=top;spacingLeft=4;spacingRight=4;overflow=hidden;rotatable=0;points=[[0,0.5],[1,0.5]];portConstraint=eastwest;" parent="5AxP4BP0D3H59sQrFA8J-52" vertex="1">
          <mxGeometry y="60" width="180" height="40" as="geometry" />
        </mxCell>
        <mxCell id="D1E1PHfLJZQOSFLsfM7y-272" value="+ getMaximumSwing() : double" style="text;align=left;verticalAlign=top;spacingLeft=4;spacingRight=4;overflow=hidden;rotatable=0;points=[[0,0.5],[1,0.5]];portConstraint=eastwest;" parent="5AxP4BP0D3H59sQrFA8J-52" vertex="1">
          <mxGeometry y="100" width="180" height="30" as="geometry" />
        </mxCell>
        <mxCell id="5AxP4BP0D3H59sQrFA8J-148" style="edgeStyle=orthogonalEdgeStyle;rounded=0;orthogonalLoop=1;jettySize=auto;html=1;entryX=0;entryY=0.5;entryDx=0;entryDy=0;endArrow=block;endFill=0;" parent="WIyWlLk6GJQsqaUBKTNV-1" source="5AxP4BP0D3H59sQrFA8J-60" target="5AxP4BP0D3H59sQrFA8J-52" edge="1">
          <mxGeometry relative="1" as="geometry" />
        </mxCell>
        <mxCell id="8Gm8YDrwoZhlwAj-0fX_-1" style="edgeStyle=orthogonalEdgeStyle;rounded=0;orthogonalLoop=1;jettySize=auto;html=1;entryX=0.5;entryY=0;entryDx=0;entryDy=0;dashed=1;dashPattern=8 8;endArrow=block;endFill=0;exitX=1;exitY=0.5;exitDx=0;exitDy=0;" parent="WIyWlLk6GJQsqaUBKTNV-1" source="5AxP4BP0D3H59sQrFA8J-61" target="4vimgVukNCVbrJqTi2xf-104" edge="1">
          <mxGeometry relative="1" as="geometry">
            <Array as="points">
              <mxPoint x="2460" y="-41" />
              <mxPoint x="2460" y="-400" />
              <mxPoint x="3655" y="-400" />
            </Array>
          </mxGeometry>
        </mxCell>
        <mxCell id="5AxP4BP0D3H59sQrFA8J-60" value="MotorizedBoat" style="swimlane;fontStyle=2;align=center;verticalAlign=top;childLayout=stackLayout;horizontal=1;startSize=26;horizontalStack=0;resizeParent=1;resizeLast=0;collapsible=1;marginBottom=0;rounded=0;shadow=0;strokeWidth=1;fillColor=#dae8fc;strokeColor=#6c8ebf;" parent="WIyWlLk6GJQsqaUBKTNV-1" vertex="1">
          <mxGeometry x="2200" y="-80" width="210" height="308" as="geometry">
            <mxRectangle x="550" y="140" width="160" height="26" as="alternateBounds" />
          </mxGeometry>
        </mxCell>
        <mxCell id="D1E1PHfLJZQOSFLsfM7y-172" value="- engine : Engine engine" style="text;align=left;verticalAlign=top;spacingLeft=4;spacingRight=4;overflow=hidden;rotatable=0;points=[[0,0.5],[1,0.5]];portConstraint=eastwest;rounded=0;shadow=0;html=0;" parent="5AxP4BP0D3H59sQrFA8J-60" vertex="1">
          <mxGeometry y="26" width="210" height="26" as="geometry" />
        </mxCell>
        <mxCell id="5AxP4BP0D3H59sQrFA8J-61" value="- started : boolean" style="text;align=left;verticalAlign=top;spacingLeft=4;spacingRight=4;overflow=hidden;rotatable=0;points=[[0,0.5],[1,0.5]];portConstraint=eastwest;rounded=0;shadow=0;html=0;" parent="5AxP4BP0D3H59sQrFA8J-60" vertex="1">
          <mxGeometry y="52" width="210" height="26" as="geometry" />
        </mxCell>
        <mxCell id="D1E1PHfLJZQOSFLsfM7y-173" value="- throttleLevel : double" style="text;align=left;verticalAlign=top;spacingLeft=4;spacingRight=4;overflow=hidden;rotatable=0;points=[[0,0.5],[1,0.5]];portConstraint=eastwest;rounded=0;shadow=0;html=0;" parent="5AxP4BP0D3H59sQrFA8J-60" vertex="1">
          <mxGeometry y="78" width="210" height="26" as="geometry" />
        </mxCell>
        <mxCell id="5AxP4BP0D3H59sQrFA8J-64" value="" style="line;html=1;strokeWidth=1;align=left;verticalAlign=middle;spacingTop=-1;spacingLeft=3;spacingRight=3;rotatable=0;labelPosition=right;points=[];portConstraint=eastwest;" parent="5AxP4BP0D3H59sQrFA8J-60" vertex="1">
          <mxGeometry y="104" width="210" height="8" as="geometry" />
        </mxCell>
        <mxCell id="D1E1PHfLJZQOSFLsfM7y-273" value="+ Boat(Engine, String, Color, double),&#xa;double, double" style="text;align=left;verticalAlign=top;spacingLeft=4;spacingRight=4;overflow=hidden;rotatable=0;points=[[0,0.5],[1,0.5]];portConstraint=eastwest;" parent="5AxP4BP0D3H59sQrFA8J-60" vertex="1">
          <mxGeometry y="112" width="210" height="40" as="geometry" />
        </mxCell>
        <mxCell id="D1E1PHfLJZQOSFLsfM7y-275" value="+ start() : void" style="text;align=left;verticalAlign=top;spacingLeft=4;spacingRight=4;overflow=hidden;rotatable=0;points=[[0,0.5],[1,0.5]];portConstraint=eastwest;" parent="5AxP4BP0D3H59sQrFA8J-60" vertex="1">
          <mxGeometry y="152" width="210" height="26" as="geometry" />
        </mxCell>
        <mxCell id="D1E1PHfLJZQOSFLsfM7y-276" value="+ stop() : void" style="text;align=left;verticalAlign=top;spacingLeft=4;spacingRight=4;overflow=hidden;rotatable=0;points=[[0,0.5],[1,0.5]];portConstraint=eastwest;" parent="5AxP4BP0D3H59sQrFA8J-60" vertex="1">
          <mxGeometry y="178" width="210" height="26" as="geometry" />
        </mxCell>
        <mxCell id="D1E1PHfLJZQOSFLsfM7y-282" value="+ isStarted() : boolean" style="text;align=left;verticalAlign=top;spacingLeft=4;spacingRight=4;overflow=hidden;rotatable=0;points=[[0,0.5],[1,0.5]];portConstraint=eastwest;" parent="5AxP4BP0D3H59sQrFA8J-60" vertex="1">
          <mxGeometry y="204" width="210" height="26" as="geometry" />
        </mxCell>
        <mxCell id="D1E1PHfLJZQOSFLsfM7y-283" value="+ setThrottle(double) : void" style="text;align=left;verticalAlign=top;spacingLeft=4;spacingRight=4;overflow=hidden;rotatable=0;points=[[0,0.5],[1,0.5]];portConstraint=eastwest;" parent="5AxP4BP0D3H59sQrFA8J-60" vertex="1">
          <mxGeometry y="230" width="210" height="26" as="geometry" />
        </mxCell>
        <mxCell id="D1E1PHfLJZQOSFLsfM7y-284" value="+ setEngine(Engine) : void" style="text;align=left;verticalAlign=top;spacingLeft=4;spacingRight=4;overflow=hidden;rotatable=0;points=[[0,0.5],[1,0.5]];portConstraint=eastwest;" parent="5AxP4BP0D3H59sQrFA8J-60" vertex="1">
          <mxGeometry y="256" width="210" height="26" as="geometry" />
        </mxCell>
        <mxCell id="D1E1PHfLJZQOSFLsfM7y-285" value="+ getWeight() : double" style="text;align=left;verticalAlign=top;spacingLeft=4;spacingRight=4;overflow=hidden;rotatable=0;points=[[0,0.5],[1,0.5]];portConstraint=eastwest;" parent="5AxP4BP0D3H59sQrFA8J-60" vertex="1">
          <mxGeometry y="282" width="210" height="26" as="geometry" />
        </mxCell>
        <mxCell id="8Gm8YDrwoZhlwAj-0fX_-13" style="edgeStyle=orthogonalEdgeStyle;rounded=0;orthogonalLoop=1;jettySize=auto;html=1;entryX=0;entryY=0.5;entryDx=0;entryDy=0;endSize=12;endArrow=diamondThin;endFill=1;exitX=1;exitY=0.5;exitDx=0;exitDy=0;" parent="WIyWlLk6GJQsqaUBKTNV-1" source="D1E1PHfLJZQOSFLsfM7y-179" target="4vimgVukNCVbrJqTi2xf-162" edge="1">
          <mxGeometry relative="1" as="geometry">
            <mxPoint x="2420" y="800" as="sourcePoint" />
          </mxGeometry>
        </mxCell>
        <mxCell id="8Gm8YDrwoZhlwAj-0fX_-24" style="edgeStyle=orthogonalEdgeStyle;rounded=0;orthogonalLoop=1;jettySize=auto;html=1;endArrow=diamondThin;endFill=1;endSize=12;entryX=0.5;entryY=1;entryDx=0;entryDy=0;" parent="WIyWlLk6GJQsqaUBKTNV-1" source="5AxP4BP0D3H59sQrFA8J-70" target="5AxP4BP0D3H59sQrFA8J-60" edge="1">
          <mxGeometry relative="1" as="geometry">
            <mxPoint x="2310" y="250" as="targetPoint" />
            <Array as="points" />
          </mxGeometry>
        </mxCell>
        <mxCell id="5AxP4BP0D3H59sQrFA8J-70" value="Engien" style="swimlane;fontStyle=0;align=center;verticalAlign=top;childLayout=stackLayout;horizontal=1;startSize=26;horizontalStack=0;resizeParent=1;resizeLast=0;collapsible=1;marginBottom=0;rounded=0;shadow=0;strokeWidth=1;" parent="WIyWlLk6GJQsqaUBKTNV-1" vertex="1">
          <mxGeometry x="2225" y="700" width="160" height="190" as="geometry">
            <mxRectangle x="550" y="140" width="160" height="26" as="alternateBounds" />
          </mxGeometry>
        </mxCell>
        <mxCell id="5AxP4BP0D3H59sQrFA8J-71" value="- enginePower : double" style="text;align=left;verticalAlign=top;spacingLeft=4;spacingRight=4;overflow=hidden;rotatable=0;points=[[0,0.5],[1,0.5]];portConstraint=eastwest;rounded=0;shadow=0;html=0;" parent="5AxP4BP0D3H59sQrFA8J-70" vertex="1">
          <mxGeometry y="26" width="160" height="24" as="geometry" />
        </mxCell>
        <mxCell id="D1E1PHfLJZQOSFLsfM7y-178" value="- weight : double " style="text;align=left;verticalAlign=top;spacingLeft=4;spacingRight=4;overflow=hidden;rotatable=0;points=[[0,0.5],[1,0.5]];portConstraint=eastwest;rounded=0;shadow=0;html=0;" parent="5AxP4BP0D3H59sQrFA8J-70" vertex="1">
          <mxGeometry y="50" width="160" height="26" as="geometry" />
        </mxCell>
        <mxCell id="D1E1PHfLJZQOSFLsfM7y-179" value="- engineOn : boolean " style="text;align=left;verticalAlign=top;spacingLeft=4;spacingRight=4;overflow=hidden;rotatable=0;points=[[0,0.5],[1,0.5]];portConstraint=eastwest;rounded=0;shadow=0;html=0;" parent="5AxP4BP0D3H59sQrFA8J-70" vertex="1">
          <mxGeometry y="76" width="160" height="26" as="geometry" />
        </mxCell>
        <mxCell id="5AxP4BP0D3H59sQrFA8J-74" value="" style="line;html=1;strokeWidth=1;align=left;verticalAlign=middle;spacingTop=-1;spacingLeft=3;spacingRight=3;rotatable=0;labelPosition=right;points=[];portConstraint=eastwest;" parent="5AxP4BP0D3H59sQrFA8J-70" vertex="1">
          <mxGeometry y="102" width="160" height="8" as="geometry" />
        </mxCell>
        <mxCell id="5AxP4BP0D3H59sQrFA8J-76" value="Output As Label" style="text;align=left;verticalAlign=top;spacingLeft=4;spacingRight=4;overflow=hidden;rotatable=0;points=[[0,0.5],[1,0.5]];portConstraint=eastwest;" parent="5AxP4BP0D3H59sQrFA8J-70" vertex="1">
          <mxGeometry y="110" width="160" height="26" as="geometry" />
        </mxCell>
        <mxCell id="5AxP4BP0D3H59sQrFA8J-91" style="edgeStyle=orthogonalEdgeStyle;rounded=0;orthogonalLoop=1;jettySize=auto;html=1;entryX=0.5;entryY=1;entryDx=0;entryDy=0;endArrow=block;endFill=0;" parent="WIyWlLk6GJQsqaUBKTNV-1" source="5AxP4BP0D3H59sQrFA8J-77" target="5AxP4BP0D3H59sQrFA8J-70" edge="1">
          <mxGeometry relative="1" as="geometry">
            <Array as="points">
              <mxPoint x="2410" y="965" />
              <mxPoint x="2305" y="965" />
            </Array>
          </mxGeometry>
        </mxCell>
        <mxCell id="8Gm8YDrwoZhlwAj-0fX_-14" style="edgeStyle=orthogonalEdgeStyle;rounded=0;orthogonalLoop=1;jettySize=auto;html=1;endArrow=diamondThin;endFill=1;endSize=12;entryX=0.5;entryY=1;entryDx=0;entryDy=0;" parent="WIyWlLk6GJQsqaUBKTNV-1" source="5AxP4BP0D3H59sQrFA8J-77" target="5AxP4BP0D3H59sQrFA8J-12" edge="1">
          <mxGeometry relative="1" as="geometry">
            <Array as="points">
              <mxPoint x="2410" y="1530" />
              <mxPoint x="2600" y="1530" />
            </Array>
            <mxPoint x="2540" y="1370" as="targetPoint" />
          </mxGeometry>
        </mxCell>
        <mxCell id="5AxP4BP0D3H59sQrFA8J-77" value="TrimmedEngien" style="swimlane;fontStyle=0;align=center;verticalAlign=top;childLayout=stackLayout;horizontal=1;startSize=26;horizontalStack=0;resizeParent=1;resizeLast=0;collapsible=1;marginBottom=0;rounded=0;shadow=0;strokeWidth=1;" parent="WIyWlLk6GJQsqaUBKTNV-1" vertex="1">
          <mxGeometry x="2330" y="1040" width="160" height="190" as="geometry">
            <mxRectangle x="550" y="140" width="160" height="26" as="alternateBounds" />
          </mxGeometry>
        </mxCell>
        <mxCell id="5AxP4BP0D3H59sQrFA8J-78" value="- trimFactor : double" style="text;align=left;verticalAlign=top;spacingLeft=4;spacingRight=4;overflow=hidden;rotatable=0;points=[[0,0.5],[1,0.5]];portConstraint=eastwest;rounded=0;shadow=0;html=0;" parent="5AxP4BP0D3H59sQrFA8J-77" vertex="1">
          <mxGeometry y="26" width="160" height="26" as="geometry" />
        </mxCell>
        <mxCell id="5AxP4BP0D3H59sQrFA8J-81" value="" style="line;html=1;strokeWidth=1;align=left;verticalAlign=middle;spacingTop=-1;spacingLeft=3;spacingRight=3;rotatable=0;labelPosition=right;points=[];portConstraint=eastwest;" parent="5AxP4BP0D3H59sQrFA8J-77" vertex="1">
          <mxGeometry y="52" width="160" height="8" as="geometry" />
        </mxCell>
        <mxCell id="5AxP4BP0D3H59sQrFA8J-82" value="Validate" style="text;align=left;verticalAlign=top;spacingLeft=4;spacingRight=4;overflow=hidden;rotatable=0;points=[[0,0.5],[1,0.5]];portConstraint=eastwest;" parent="5AxP4BP0D3H59sQrFA8J-77" vertex="1">
          <mxGeometry y="60" width="160" height="30" as="geometry" />
        </mxCell>
        <mxCell id="5AxP4BP0D3H59sQrFA8J-92" style="edgeStyle=orthogonalEdgeStyle;rounded=0;orthogonalLoop=1;jettySize=auto;html=1;entryX=0.5;entryY=1;entryDx=0;entryDy=0;endArrow=block;endFill=0;" parent="WIyWlLk6GJQsqaUBKTNV-1" source="5AxP4BP0D3H59sQrFA8J-84" target="5AxP4BP0D3H59sQrFA8J-70" edge="1">
          <mxGeometry relative="1" as="geometry" />
        </mxCell>
        <mxCell id="8Gm8YDrwoZhlwAj-0fX_-15" style="edgeStyle=orthogonalEdgeStyle;rounded=0;orthogonalLoop=1;jettySize=auto;html=1;entryX=0.5;entryY=1;entryDx=0;entryDy=0;endSize=12;endArrow=diamondThin;endFill=1;" parent="WIyWlLk6GJQsqaUBKTNV-1" source="5AxP4BP0D3H59sQrFA8J-84" target="5AxP4BP0D3H59sQrFA8J-19" edge="1">
          <mxGeometry relative="1" as="geometry">
            <Array as="points">
              <mxPoint x="2210" y="1580" />
              <mxPoint x="2850" y="1580" />
            </Array>
          </mxGeometry>
        </mxCell>
        <mxCell id="5AxP4BP0D3H59sQrFA8J-84" value="TurboEngien" style="swimlane;fontStyle=0;align=center;verticalAlign=top;childLayout=stackLayout;horizontal=1;startSize=26;horizontalStack=0;resizeParent=1;resizeLast=0;collapsible=1;marginBottom=0;rounded=0;shadow=0;strokeWidth=1;" parent="WIyWlLk6GJQsqaUBKTNV-1" vertex="1">
          <mxGeometry x="2130" y="1040" width="160" height="190" as="geometry">
            <mxRectangle x="550" y="140" width="160" height="26" as="alternateBounds" />
          </mxGeometry>
        </mxCell>
        <mxCell id="5AxP4BP0D3H59sQrFA8J-85" value="- turboFactor : double" style="text;align=left;verticalAlign=top;spacingLeft=4;spacingRight=4;overflow=hidden;rotatable=0;points=[[0,0.5],[1,0.5]];portConstraint=eastwest;rounded=0;shadow=0;html=0;" parent="5AxP4BP0D3H59sQrFA8J-84" vertex="1">
          <mxGeometry y="26" width="160" height="26" as="geometry" />
        </mxCell>
        <mxCell id="D1E1PHfLJZQOSFLsfM7y-180" value="- turboOn: boolean" style="text;align=left;verticalAlign=top;spacingLeft=4;spacingRight=4;overflow=hidden;rotatable=0;points=[[0,0.5],[1,0.5]];portConstraint=eastwest;rounded=0;shadow=0;html=0;" parent="5AxP4BP0D3H59sQrFA8J-84" vertex="1">
          <mxGeometry y="52" width="160" height="26" as="geometry" />
        </mxCell>
        <mxCell id="5AxP4BP0D3H59sQrFA8J-88" value="" style="line;html=1;strokeWidth=1;align=left;verticalAlign=middle;spacingTop=-1;spacingLeft=3;spacingRight=3;rotatable=0;labelPosition=right;points=[];portConstraint=eastwest;" parent="5AxP4BP0D3H59sQrFA8J-84" vertex="1">
          <mxGeometry y="78" width="160" height="8" as="geometry" />
        </mxCell>
        <mxCell id="5AxP4BP0D3H59sQrFA8J-89" value="Validate" style="text;align=left;verticalAlign=top;spacingLeft=4;spacingRight=4;overflow=hidden;rotatable=0;points=[[0,0.5],[1,0.5]];portConstraint=eastwest;" parent="5AxP4BP0D3H59sQrFA8J-84" vertex="1">
          <mxGeometry y="86" width="160" height="26" as="geometry" />
        </mxCell>
        <mxCell id="5AxP4BP0D3H59sQrFA8J-107" value="Storage" style="swimlane;fontStyle=0;align=center;verticalAlign=top;childLayout=stackLayout;horizontal=1;startSize=26;horizontalStack=0;resizeParent=1;resizeLast=0;collapsible=1;marginBottom=0;rounded=0;shadow=0;strokeWidth=1;" parent="WIyWlLk6GJQsqaUBKTNV-1" vertex="1">
          <mxGeometry x="4090" y="77" width="170" height="373" as="geometry">
            <mxRectangle x="550" y="140" width="160" height="26" as="alternateBounds" />
          </mxGeometry>
        </mxCell>
        <mxCell id="5AxP4BP0D3H59sQrFA8J-110" value="- storageItems : Collection&lt;T&gt;" style="text;align=left;verticalAlign=top;spacingLeft=4;spacingRight=4;overflow=hidden;rotatable=0;points=[[0,0.5],[1,0.5]];portConstraint=eastwest;rounded=0;shadow=0;html=0;" parent="5AxP4BP0D3H59sQrFA8J-107" vertex="1">
          <mxGeometry y="26" width="170" height="26" as="geometry" />
        </mxCell>
        <mxCell id="D1E1PHfLJZQOSFLsfM7y-182" value="- owner : Storage" style="text;align=left;verticalAlign=top;spacingLeft=4;spacingRight=4;overflow=hidden;rotatable=0;points=[[0,0.5],[1,0.5]];portConstraint=eastwest;rounded=0;shadow=0;html=0;" parent="5AxP4BP0D3H59sQrFA8J-107" vertex="1">
          <mxGeometry y="52" width="170" height="26" as="geometry" />
        </mxCell>
        <mxCell id="D1E1PHfLJZQOSFLsfM7y-183" value="- size : int" style="text;align=left;verticalAlign=top;spacingLeft=4;spacingRight=4;overflow=hidden;rotatable=0;points=[[0,0.5],[1,0.5]];portConstraint=eastwest;rounded=0;shadow=0;html=0;" parent="5AxP4BP0D3H59sQrFA8J-107" vertex="1">
          <mxGeometry y="78" width="170" height="26" as="geometry" />
        </mxCell>
        <mxCell id="5AxP4BP0D3H59sQrFA8J-111" value="" style="line;html=1;strokeWidth=1;align=left;verticalAlign=middle;spacingTop=-1;spacingLeft=3;spacingRight=3;rotatable=0;labelPosition=right;points=[];portConstraint=eastwest;" parent="5AxP4BP0D3H59sQrFA8J-107" vertex="1">
          <mxGeometry y="104" width="170" height="8" as="geometry" />
        </mxCell>
        <mxCell id="5AxP4BP0D3H59sQrFA8J-112" value="+ Storage(Collection&lt;T&gt;, &#xa;Element, int)" style="text;align=left;verticalAlign=top;spacingLeft=4;spacingRight=4;overflow=hidden;rotatable=0;points=[[0,0.5],[1,0.5]];portConstraint=eastwest;" parent="5AxP4BP0D3H59sQrFA8J-107" vertex="1">
          <mxGeometry y="112" width="170" height="38" as="geometry" />
        </mxCell>
        <mxCell id="D1E1PHfLJZQOSFLsfM7y-214" value="+ add(T) : void" style="text;align=left;verticalAlign=top;spacingLeft=4;spacingRight=4;overflow=hidden;rotatable=0;points=[[0,0.5],[1,0.5]];portConstraint=eastwest;" parent="5AxP4BP0D3H59sQrFA8J-107" vertex="1">
          <mxGeometry y="150" width="170" height="30" as="geometry" />
        </mxCell>
        <mxCell id="D1E1PHfLJZQOSFLsfM7y-216" value="+ remove(T) : void" style="text;align=left;verticalAlign=top;spacingLeft=4;spacingRight=4;overflow=hidden;rotatable=0;points=[[0,0.5],[1,0.5]];portConstraint=eastwest;" parent="5AxP4BP0D3H59sQrFA8J-107" vertex="1">
          <mxGeometry y="180" width="170" height="30" as="geometry" />
        </mxCell>
        <mxCell id="D1E1PHfLJZQOSFLsfM7y-218" value="+ remove(T, double[]) : void" style="text;align=left;verticalAlign=top;spacingLeft=4;spacingRight=4;overflow=hidden;rotatable=0;points=[[0,0.5],[1,0.5]];portConstraint=eastwest;" parent="5AxP4BP0D3H59sQrFA8J-107" vertex="1">
          <mxGeometry y="210" width="170" height="30" as="geometry" />
        </mxCell>
        <mxCell id="D1E1PHfLJZQOSFLsfM7y-223" value="+ getOwner() : Element" style="text;align=left;verticalAlign=top;spacingLeft=4;spacingRight=4;overflow=hidden;rotatable=0;points=[[0,0.5],[1,0.5]];portConstraint=eastwest;" parent="5AxP4BP0D3H59sQrFA8J-107" vertex="1">
          <mxGeometry y="240" width="170" height="30" as="geometry" />
        </mxCell>
        <mxCell id="D1E1PHfLJZQOSFLsfM7y-224" value="+ getSize() : int" style="text;align=left;verticalAlign=top;spacingLeft=4;spacingRight=4;overflow=hidden;rotatable=0;points=[[0,0.5],[1,0.5]];portConstraint=eastwest;" parent="5AxP4BP0D3H59sQrFA8J-107" vertex="1">
          <mxGeometry y="270" width="170" height="30" as="geometry" />
        </mxCell>
        <mxCell id="D1E1PHfLJZQOSFLsfM7y-222" value="+ getItemCount() : int" style="text;align=left;verticalAlign=top;spacingLeft=4;spacingRight=4;overflow=hidden;rotatable=0;points=[[0,0.5],[1,0.5]];portConstraint=eastwest;" parent="5AxP4BP0D3H59sQrFA8J-107" vertex="1">
          <mxGeometry y="300" width="170" height="30" as="geometry" />
        </mxCell>
        <mxCell id="D1E1PHfLJZQOSFLsfM7y-217" value="+ getStorageItems() &#xa;: Collection&lt;T&gt;" style="text;align=left;verticalAlign=top;spacingLeft=4;spacingRight=4;overflow=hidden;rotatable=0;points=[[0,0.5],[1,0.5]];portConstraint=eastwest;" parent="5AxP4BP0D3H59sQrFA8J-107" vertex="1">
          <mxGeometry y="330" width="170" height="30" as="geometry" />
        </mxCell>
        <mxCell id="5AxP4BP0D3H59sQrFA8J-114" value="&lt;font style=&quot;font-size: 30px;&quot;&gt;T&lt;/font&gt;" style="whiteSpace=wrap;html=1;aspect=fixed;dashed=1;dashPattern=12 12;" parent="WIyWlLk6GJQsqaUBKTNV-1" vertex="1">
          <mxGeometry x="4225" y="40" width="52" height="52" as="geometry" />
        </mxCell>
        <mxCell id="5AxP4BP0D3H59sQrFA8J-130" style="edgeStyle=orthogonalEdgeStyle;rounded=0;orthogonalLoop=1;jettySize=auto;html=1;entryX=0.5;entryY=1;entryDx=0;entryDy=0;endArrow=block;endFill=0;" parent="WIyWlLk6GJQsqaUBKTNV-1" source="5AxP4BP0D3H59sQrFA8J-117" target="5AxP4BP0D3H59sQrFA8J-107" edge="1">
          <mxGeometry relative="1" as="geometry" />
        </mxCell>
        <mxCell id="8Gm8YDrwoZhlwAj-0fX_-10" style="edgeStyle=orthogonalEdgeStyle;rounded=0;orthogonalLoop=1;jettySize=auto;html=1;endArrow=diamondThin;endFill=1;endSize=12;exitX=0.5;exitY=1;exitDx=0;exitDy=0;entryX=1;entryY=0.5;entryDx=0;entryDy=0;" parent="WIyWlLk6GJQsqaUBKTNV-1" source="5AxP4BP0D3H59sQrFA8J-117" target="5AxP4BP0D3H59sQrFA8J-39" edge="1">
          <mxGeometry relative="1" as="geometry">
            <mxPoint x="3450" y="1090" as="targetPoint" />
            <Array as="points">
              <mxPoint x="4075" y="1553" />
            </Array>
            <mxPoint x="3990" y="530" as="sourcePoint" />
          </mxGeometry>
        </mxCell>
        <mxCell id="5AxP4BP0D3H59sQrFA8J-117" value="StorageStack" style="swimlane;fontStyle=0;align=center;verticalAlign=top;childLayout=stackLayout;horizontal=1;startSize=26;horizontalStack=0;resizeParent=1;resizeLast=0;collapsible=1;marginBottom=0;rounded=0;shadow=0;strokeWidth=1;" parent="WIyWlLk6GJQsqaUBKTNV-1" vertex="1">
          <mxGeometry x="3990" y="510" width="170" height="190" as="geometry">
            <mxRectangle x="550" y="140" width="160" height="26" as="alternateBounds" />
          </mxGeometry>
        </mxCell>
        <mxCell id="5AxP4BP0D3H59sQrFA8J-118" value="- stackItems : Stack&lt;T&gt; " style="text;align=left;verticalAlign=top;spacingLeft=4;spacingRight=4;overflow=hidden;rotatable=0;points=[[0,0.5],[1,0.5]];portConstraint=eastwest;rounded=0;shadow=0;html=0;" parent="5AxP4BP0D3H59sQrFA8J-117" vertex="1">
          <mxGeometry y="26" width="170" height="26" as="geometry" />
        </mxCell>
        <mxCell id="5AxP4BP0D3H59sQrFA8J-121" value="" style="line;html=1;strokeWidth=1;align=left;verticalAlign=middle;spacingTop=-1;spacingLeft=3;spacingRight=3;rotatable=0;labelPosition=right;points=[];portConstraint=eastwest;" parent="5AxP4BP0D3H59sQrFA8J-117" vertex="1">
          <mxGeometry y="52" width="170" height="8" as="geometry" />
        </mxCell>
        <mxCell id="5AxP4BP0D3H59sQrFA8J-122" value="+ StorageQueue(Element, int)" style="text;align=left;verticalAlign=top;spacingLeft=4;spacingRight=4;overflow=hidden;rotatable=0;points=[[0,0.5],[1,0.5]];portConstraint=eastwest;" parent="5AxP4BP0D3H59sQrFA8J-117" vertex="1">
          <mxGeometry y="60" width="170" height="26" as="geometry" />
        </mxCell>
        <mxCell id="D1E1PHfLJZQOSFLsfM7y-230" value="+ pop() : T" style="text;align=left;verticalAlign=top;spacingLeft=4;spacingRight=4;overflow=hidden;rotatable=0;points=[[0,0.5],[1,0.5]];portConstraint=eastwest;" parent="5AxP4BP0D3H59sQrFA8J-117" vertex="1">
          <mxGeometry y="86" width="170" height="26" as="geometry" />
        </mxCell>
        <mxCell id="D1E1PHfLJZQOSFLsfM7y-231" value="+ pop(double[]) :  T" style="text;align=left;verticalAlign=top;spacingLeft=4;spacingRight=4;overflow=hidden;rotatable=0;points=[[0,0.5],[1,0.5]];portConstraint=eastwest;" parent="5AxP4BP0D3H59sQrFA8J-117" vertex="1">
          <mxGeometry y="112" width="170" height="26" as="geometry" />
        </mxCell>
        <mxCell id="5AxP4BP0D3H59sQrFA8J-138" style="edgeStyle=orthogonalEdgeStyle;rounded=0;orthogonalLoop=1;jettySize=auto;html=1;entryX=0.5;entryY=1;entryDx=0;entryDy=0;endArrow=block;endFill=0;" parent="WIyWlLk6GJQsqaUBKTNV-1" source="5AxP4BP0D3H59sQrFA8J-131" target="5AxP4BP0D3H59sQrFA8J-107" edge="1">
          <mxGeometry relative="1" as="geometry" />
        </mxCell>
        <mxCell id="8Gm8YDrwoZhlwAj-0fX_-11" style="edgeStyle=orthogonalEdgeStyle;rounded=0;orthogonalLoop=1;jettySize=auto;html=1;entryX=0.5;entryY=0;entryDx=0;entryDy=0;exitX=1;exitY=0.5;exitDx=0;exitDy=0;endArrow=diamondThin;endFill=1;endSize=12;" parent="WIyWlLk6GJQsqaUBKTNV-1" source="5AxP4BP0D3H59sQrFA8J-131" target="5AxP4BP0D3H59sQrFA8J-170" edge="1">
          <mxGeometry relative="1" as="geometry">
            <mxPoint x="1920" y="-100" as="targetPoint" />
            <mxPoint x="4520" y="450" as="sourcePoint" />
            <Array as="points">
              <mxPoint x="4470" y="605" />
              <mxPoint x="4470" y="-560" />
              <mxPoint x="2305" y="-560" />
            </Array>
          </mxGeometry>
        </mxCell>
        <mxCell id="5AxP4BP0D3H59sQrFA8J-131" value="StorageQueue" style="swimlane;fontStyle=0;align=center;verticalAlign=top;childLayout=stackLayout;horizontal=1;startSize=26;horizontalStack=0;resizeParent=1;resizeLast=0;collapsible=1;marginBottom=0;rounded=0;shadow=0;strokeWidth=1;" parent="WIyWlLk6GJQsqaUBKTNV-1" vertex="1">
          <mxGeometry x="4210" y="510" width="170" height="190" as="geometry">
            <mxRectangle x="550" y="140" width="160" height="26" as="alternateBounds" />
          </mxGeometry>
        </mxCell>
        <mxCell id="5AxP4BP0D3H59sQrFA8J-134" value="- queue : ItemsQueue&lt;T&gt;" style="text;align=left;verticalAlign=top;spacingLeft=4;spacingRight=4;overflow=hidden;rotatable=0;points=[[0,0.5],[1,0.5]];portConstraint=eastwest;rounded=0;shadow=0;html=0;" parent="5AxP4BP0D3H59sQrFA8J-131" vertex="1">
          <mxGeometry y="26" width="170" height="26" as="geometry" />
        </mxCell>
        <mxCell id="5AxP4BP0D3H59sQrFA8J-135" value="" style="line;html=1;strokeWidth=1;align=left;verticalAlign=middle;spacingTop=-1;spacingLeft=3;spacingRight=3;rotatable=0;labelPosition=right;points=[];portConstraint=eastwest;" parent="5AxP4BP0D3H59sQrFA8J-131" vertex="1">
          <mxGeometry y="52" width="170" height="8" as="geometry" />
        </mxCell>
        <mxCell id="D1E1PHfLJZQOSFLsfM7y-229" value="+ StorageStack(Element, int)" style="text;align=left;verticalAlign=top;spacingLeft=4;spacingRight=4;overflow=hidden;rotatable=0;points=[[0,0.5],[1,0.5]];portConstraint=eastwest;" parent="5AxP4BP0D3H59sQrFA8J-131" vertex="1">
          <mxGeometry y="60" width="170" height="26" as="geometry" />
        </mxCell>
        <mxCell id="D1E1PHfLJZQOSFLsfM7y-227" value="+ poll() : T" style="text;align=left;verticalAlign=top;spacingLeft=4;spacingRight=4;overflow=hidden;rotatable=0;points=[[0,0.5],[1,0.5]];portConstraint=eastwest;" parent="5AxP4BP0D3H59sQrFA8J-131" vertex="1">
          <mxGeometry y="86" width="170" height="26" as="geometry" />
        </mxCell>
        <mxCell id="D1E1PHfLJZQOSFLsfM7y-228" value="+ poll(double[]) :  T" style="text;align=left;verticalAlign=top;spacingLeft=4;spacingRight=4;overflow=hidden;rotatable=0;points=[[0,0.5],[1,0.5]];portConstraint=eastwest;" parent="5AxP4BP0D3H59sQrFA8J-131" vertex="1">
          <mxGeometry y="112" width="170" height="26" as="geometry" />
        </mxCell>
        <mxCell id="5AxP4BP0D3H59sQrFA8J-175" style="edgeStyle=orthogonalEdgeStyle;rounded=0;orthogonalLoop=1;jettySize=auto;html=1;entryX=0.5;entryY=0;entryDx=0;entryDy=0;endArrow=block;endFill=0;" parent="WIyWlLk6GJQsqaUBKTNV-1" source="5AxP4BP0D3H59sQrFA8J-170" target="5AxP4BP0D3H59sQrFA8J-60" edge="1">
          <mxGeometry relative="1" as="geometry" />
        </mxCell>
        <mxCell id="5AxP4BP0D3H59sQrFA8J-170" value="Ferry2000" style="swimlane;fontStyle=0;align=center;verticalAlign=top;childLayout=stackLayout;horizontal=1;startSize=26;horizontalStack=0;resizeParent=1;resizeLast=0;collapsible=1;marginBottom=0;rounded=0;shadow=0;strokeWidth=1;" parent="WIyWlLk6GJQsqaUBKTNV-1" vertex="1">
          <mxGeometry x="2210" y="-390" width="190" height="230" as="geometry">
            <mxRectangle x="550" y="140" width="160" height="26" as="alternateBounds" />
          </mxGeometry>
        </mxCell>
        <mxCell id="5AxP4BP0D3H59sQrFA8J-171" value="- lanes : &#xa;ArrayList&lt;StorageQueue&lt;Car&gt;&gt;" style="text;align=left;verticalAlign=top;spacingLeft=4;spacingRight=4;overflow=hidden;rotatable=0;points=[[0,0.5],[1,0.5]];portConstraint=eastwest;rounded=0;shadow=0;html=0;" parent="5AxP4BP0D3H59sQrFA8J-170" vertex="1">
          <mxGeometry y="26" width="190" height="34" as="geometry" />
        </mxCell>
        <mxCell id="D1E1PHfLJZQOSFLsfM7y-175" value="- laneCount : int" style="text;align=left;verticalAlign=top;spacingLeft=4;spacingRight=4;overflow=hidden;rotatable=0;points=[[0,0.5],[1,0.5]];portConstraint=eastwest;" parent="5AxP4BP0D3H59sQrFA8J-170" vertex="1">
          <mxGeometry y="60" width="190" height="26" as="geometry" />
        </mxCell>
        <mxCell id="D1E1PHfLJZQOSFLsfM7y-176" value="- reach double" style="text;align=left;verticalAlign=top;spacingLeft=4;spacingRight=4;overflow=hidden;rotatable=0;points=[[0,0.5],[1,0.5]];portConstraint=eastwest;" parent="5AxP4BP0D3H59sQrFA8J-170" vertex="1">
          <mxGeometry y="86" width="190" height="26" as="geometry" />
        </mxCell>
        <mxCell id="5AxP4BP0D3H59sQrFA8J-172" value="" style="line;html=1;strokeWidth=1;align=left;verticalAlign=middle;spacingTop=-1;spacingLeft=3;spacingRight=3;rotatable=0;labelPosition=right;points=[];portConstraint=eastwest;" parent="5AxP4BP0D3H59sQrFA8J-170" vertex="1">
          <mxGeometry y="112" width="190" height="8" as="geometry" />
        </mxCell>
        <mxCell id="5AxP4BP0D3H59sQrFA8J-173" value="+ Ferry2000(int, int)" style="text;align=left;verticalAlign=top;spacingLeft=4;spacingRight=4;overflow=hidden;rotatable=0;points=[[0,0.5],[1,0.5]];portConstraint=eastwest;" parent="5AxP4BP0D3H59sQrFA8J-170" vertex="1">
          <mxGeometry y="120" width="190" height="26" as="geometry" />
        </mxCell>
        <mxCell id="D1E1PHfLJZQOSFLsfM7y-286" value="+ loadCar(Car, int) : void" style="text;align=left;verticalAlign=top;spacingLeft=4;spacingRight=4;overflow=hidden;rotatable=0;points=[[0,0.5],[1,0.5]];portConstraint=eastwest;" parent="5AxP4BP0D3H59sQrFA8J-170" vertex="1">
          <mxGeometry y="146" width="190" height="26" as="geometry" />
        </mxCell>
        <mxCell id="D1E1PHfLJZQOSFLsfM7y-287" value="+ unloadCar(int) : void" style="text;align=left;verticalAlign=top;spacingLeft=4;spacingRight=4;overflow=hidden;rotatable=0;points=[[0,0.5],[1,0.5]];portConstraint=eastwest;" parent="5AxP4BP0D3H59sQrFA8J-170" vertex="1">
          <mxGeometry y="172" width="190" height="26" as="geometry" />
        </mxCell>
        <mxCell id="D1E1PHfLJZQOSFLsfM7y-289" value="+ getWeight() : double" style="text;align=left;verticalAlign=top;spacingLeft=4;spacingRight=4;overflow=hidden;rotatable=0;points=[[0,0.5],[1,0.5]];portConstraint=eastwest;" parent="5AxP4BP0D3H59sQrFA8J-170" vertex="1">
          <mxGeometry y="198" width="190" height="26" as="geometry" />
        </mxCell>
        <mxCell id="8Gm8YDrwoZhlwAj-0fX_-7" style="edgeStyle=orthogonalEdgeStyle;rounded=0;orthogonalLoop=1;jettySize=auto;html=1;exitX=0;exitY=0.5;exitDx=0;exitDy=0;endArrow=diamondThin;endFill=1;endSize=12;entryX=1;entryY=0.5;entryDx=0;entryDy=0;" parent="WIyWlLk6GJQsqaUBKTNV-1" source="5AxP4BP0D3H59sQrFA8J-107" target="4vimgVukNCVbrJqTi2xf-143" edge="1">
          <mxGeometry relative="1" as="geometry">
            <mxPoint x="3950" y="82" as="sourcePoint" />
            <mxPoint x="4000" y="240" as="targetPoint" />
            <Array as="points">
              <mxPoint x="4000" y="172" />
              <mxPoint x="4000" y="278" />
            </Array>
          </mxGeometry>
        </mxCell>
        <mxCell id="i-63GN7wooTN-oHSXO1O-0" value="" style="shape=folder;fontStyle=1;spacingTop=10;tabWidth=50;tabHeight=20;tabPosition=left;html=1;whiteSpace=wrap;" parent="WIyWlLk6GJQsqaUBKTNV-1" vertex="1">
          <mxGeometry x="4559" y="-100" width="950" height="440" as="geometry" />
        </mxCell>
        <mxCell id="i-63GN7wooTN-oHSXO1O-5" value="assets" style="text;html=1;strokeColor=none;fillColor=none;align=center;verticalAlign=middle;whiteSpace=wrap;rounded=0;" parent="WIyWlLk6GJQsqaUBKTNV-1" vertex="1">
          <mxGeometry x="4559" y="-100" width="50" height="20" as="geometry" />
        </mxCell>
        <mxCell id="i-63GN7wooTN-oHSXO1O-6" value="" style="shape=folder;fontStyle=1;spacingTop=10;tabWidth=80;tabHeight=20;tabPosition=left;html=1;whiteSpace=wrap;" parent="WIyWlLk6GJQsqaUBKTNV-1" vertex="1">
          <mxGeometry x="4549" y="-330" width="390" height="180" as="geometry" />
        </mxCell>
        <mxCell id="i-63GN7wooTN-oHSXO1O-7" value="renderEngine" style="text;html=1;strokeColor=none;fillColor=none;align=center;verticalAlign=middle;whiteSpace=wrap;rounded=0;" parent="WIyWlLk6GJQsqaUBKTNV-1" vertex="1">
          <mxGeometry x="4549" y="-330" width="80" height="20" as="geometry" />
        </mxCell>
        <mxCell id="i-63GN7wooTN-oHSXO1O-8" value="" style="shape=folder;fontStyle=1;spacingTop=10;tabWidth=50;tabHeight=20;tabPosition=left;html=1;whiteSpace=wrap;" parent="WIyWlLk6GJQsqaUBKTNV-1" vertex="1">
          <mxGeometry x="4569" y="-50" width="720" height="380" as="geometry" />
        </mxCell>
        <mxCell id="i-63GN7wooTN-oHSXO1O-9" value="elements" style="text;html=1;strokeColor=none;fillColor=none;align=center;verticalAlign=middle;whiteSpace=wrap;rounded=0;" parent="WIyWlLk6GJQsqaUBKTNV-1" vertex="1">
          <mxGeometry x="4569" y="-50" width="50" height="20" as="geometry" />
        </mxCell>
        <mxCell id="i-63GN7wooTN-oHSXO1O-10" value="" style="shape=folder;fontStyle=1;spacingTop=10;tabWidth=50;tabHeight=20;tabPosition=left;html=1;whiteSpace=wrap;" parent="WIyWlLk6GJQsqaUBKTNV-1" vertex="1">
          <mxGeometry x="5299" y="-50" width="200" height="380" as="geometry" />
        </mxCell>
        <mxCell id="i-63GN7wooTN-oHSXO1O-11" value="storage" style="text;html=1;strokeColor=none;fillColor=none;align=center;verticalAlign=middle;whiteSpace=wrap;rounded=0;" parent="WIyWlLk6GJQsqaUBKTNV-1" vertex="1">
          <mxGeometry x="5299" y="-50" width="50" height="20" as="geometry" />
        </mxCell>
        <mxCell id="i-63GN7wooTN-oHSXO1O-14" value="" style="shape=folder;fontStyle=1;spacingTop=10;tabWidth=50;tabHeight=20;tabPosition=left;html=1;whiteSpace=wrap;" parent="WIyWlLk6GJQsqaUBKTNV-1" vertex="1">
          <mxGeometry x="4579" width="700" height="320" as="geometry" />
        </mxCell>
        <mxCell id="i-63GN7wooTN-oHSXO1O-15" value="vehicels" style="text;html=1;strokeColor=none;fillColor=none;align=center;verticalAlign=middle;whiteSpace=wrap;rounded=0;" parent="WIyWlLk6GJQsqaUBKTNV-1" vertex="1">
          <mxGeometry x="4579" width="50" height="20" as="geometry" />
        </mxCell>
        <mxCell id="i-63GN7wooTN-oHSXO1O-16" value="" style="shape=folder;fontStyle=1;spacingTop=10;tabWidth=50;tabHeight=20;tabPosition=left;html=1;whiteSpace=wrap;" parent="WIyWlLk6GJQsqaUBKTNV-1" vertex="1">
          <mxGeometry x="4589" y="50" width="270" height="260" as="geometry" />
        </mxCell>
        <mxCell id="i-63GN7wooTN-oHSXO1O-17" value="cars" style="text;html=1;strokeColor=none;fillColor=none;align=center;verticalAlign=middle;whiteSpace=wrap;rounded=0;" parent="WIyWlLk6GJQsqaUBKTNV-1" vertex="1">
          <mxGeometry x="4589" y="50" width="50" height="20" as="geometry" />
        </mxCell>
        <mxCell id="i-63GN7wooTN-oHSXO1O-18" value="" style="shape=folder;fontStyle=1;spacingTop=10;tabWidth=50;tabHeight=20;tabPosition=left;html=1;whiteSpace=wrap;" parent="WIyWlLk6GJQsqaUBKTNV-1" vertex="1">
          <mxGeometry x="4879" y="50" width="200" height="160" as="geometry" />
        </mxCell>
        <mxCell id="i-63GN7wooTN-oHSXO1O-19" value="boats" style="text;html=1;strokeColor=none;fillColor=none;align=center;verticalAlign=middle;whiteSpace=wrap;rounded=0;" parent="WIyWlLk6GJQsqaUBKTNV-1" vertex="1">
          <mxGeometry x="4879" y="50" width="50" height="20" as="geometry" />
        </mxCell>
        <mxCell id="i-63GN7wooTN-oHSXO1O-20" value="" style="shape=folder;fontStyle=1;spacingTop=10;tabWidth=50;tabHeight=20;tabPosition=left;html=1;whiteSpace=wrap;" parent="WIyWlLk6GJQsqaUBKTNV-1" vertex="1">
          <mxGeometry x="5099" y="50" width="170" height="100" as="geometry" />
        </mxCell>
        <mxCell id="i-63GN7wooTN-oHSXO1O-21" value="engiens" style="text;html=1;strokeColor=none;fillColor=none;align=center;verticalAlign=middle;whiteSpace=wrap;rounded=0;" parent="WIyWlLk6GJQsqaUBKTNV-1" vertex="1">
          <mxGeometry x="5099" y="50" width="50" height="20" as="geometry" />
        </mxCell>
        <mxCell id="i-63GN7wooTN-oHSXO1O-23" value="" style="shape=folder;fontStyle=1;spacingTop=10;tabWidth=85;tabHeight=20;tabPosition=left;html=1;whiteSpace=wrap;" parent="WIyWlLk6GJQsqaUBKTNV-1" vertex="1">
          <mxGeometry x="4894" y="80" width="170" height="100" as="geometry" />
        </mxCell>
        <mxCell id="i-63GN7wooTN-oHSXO1O-24" value="motorizedboats" style="text;html=1;strokeColor=none;fillColor=none;align=center;verticalAlign=middle;whiteSpace=wrap;rounded=0;" parent="WIyWlLk6GJQsqaUBKTNV-1" vertex="1">
          <mxGeometry x="4894" y="80" width="85" height="20" as="geometry" />
        </mxCell>
        <mxCell id="i-63GN7wooTN-oHSXO1O-25" value="" style="shape=folder;fontStyle=1;spacingTop=10;tabWidth=90;tabHeight=18;tabPosition=left;html=1;whiteSpace=wrap;" parent="WIyWlLk6GJQsqaUBKTNV-1" vertex="1">
          <mxGeometry x="4599" y="82" width="170" height="100" as="geometry" />
        </mxCell>
        <mxCell id="i-63GN7wooTN-oHSXO1O-26" value="passangerCars" style="text;html=1;strokeColor=none;fillColor=none;align=center;verticalAlign=middle;whiteSpace=wrap;rounded=0;" parent="WIyWlLk6GJQsqaUBKTNV-1" vertex="1">
          <mxGeometry x="4599" y="80" width="90" height="20" as="geometry" />
        </mxCell>
        <mxCell id="i-63GN7wooTN-oHSXO1O-27" value="" style="shape=folder;fontStyle=1;spacingTop=10;tabWidth=50;tabHeight=20;tabPosition=left;html=1;whiteSpace=wrap;" parent="WIyWlLk6GJQsqaUBKTNV-1" vertex="1">
          <mxGeometry x="4599" y="200" width="170" height="100" as="geometry" />
        </mxCell>
        <mxCell id="i-63GN7wooTN-oHSXO1O-28" value="Trucks" style="text;html=1;strokeColor=none;fillColor=none;align=center;verticalAlign=middle;whiteSpace=wrap;rounded=0;" parent="WIyWlLk6GJQsqaUBKTNV-1" vertex="1">
          <mxGeometry x="4599" y="200" width="50" height="20" as="geometry" />
        </mxCell>
        <mxCell id="i-63GN7wooTN-oHSXO1O-29" value="" style="shape=folder;fontStyle=1;spacingTop=10;tabWidth=50;tabHeight=20;tabPosition=left;html=1;whiteSpace=wrap;" parent="WIyWlLk6GJQsqaUBKTNV-1" vertex="1">
          <mxGeometry x="4559" y="-300" width="200" height="118" as="geometry" />
        </mxCell>
        <mxCell id="i-63GN7wooTN-oHSXO1O-30" value="pics" style="text;html=1;strokeColor=none;fillColor=none;align=center;verticalAlign=middle;whiteSpace=wrap;rounded=0;" parent="WIyWlLk6GJQsqaUBKTNV-1" vertex="1">
          <mxGeometry x="4559" y="-300" width="50" height="20" as="geometry" />
        </mxCell>
        <mxCell id="i-63GN7wooTN-oHSXO1O-32" style="edgeStyle=orthogonalEdgeStyle;rounded=0;orthogonalLoop=1;jettySize=auto;html=1;exitX=0.5;exitY=1;exitDx=0;exitDy=0;exitPerimeter=0;" parent="WIyWlLk6GJQsqaUBKTNV-1" source="i-63GN7wooTN-oHSXO1O-6" target="i-63GN7wooTN-oHSXO1O-6" edge="1">
          <mxGeometry relative="1" as="geometry" />
        </mxCell>
        <mxCell id="D1E1PHfLJZQOSFLsfM7y-19" style="edgeStyle=orthogonalEdgeStyle;rounded=0;orthogonalLoop=1;jettySize=auto;html=1;endArrow=diamondThin;endFill=1;endSize=12;entryX=0.292;entryY=0.983;entryDx=0;entryDy=0;exitX=0.25;exitY=0;exitDx=0;exitDy=0;entryPerimeter=0;" parent="WIyWlLk6GJQsqaUBKTNV-1" source="i-63GN7wooTN-oHSXO1O-38" target="D1E1PHfLJZQOSFLsfM7y-299" edge="1">
          <mxGeometry relative="1" as="geometry">
            <mxPoint x="1219.5" y="774" as="sourcePoint" />
            <mxPoint x="1219.5" y="664" as="targetPoint" />
            <Array as="points" />
          </mxGeometry>
        </mxCell>
        <mxCell id="i-63GN7wooTN-oHSXO1O-38" value="CarController" style="swimlane;fontStyle=0;align=center;verticalAlign=top;childLayout=stackLayout;horizontal=1;startSize=26;horizontalStack=0;resizeParent=1;resizeLast=0;collapsible=1;marginBottom=0;rounded=0;shadow=0;strokeWidth=1;" parent="WIyWlLk6GJQsqaUBKTNV-1" vertex="1">
          <mxGeometry x="1155" y="650" width="160" height="242" as="geometry">
            <mxRectangle x="550" y="140" width="160" height="26" as="alternateBounds" />
          </mxGeometry>
        </mxCell>
        <mxCell id="i-63GN7wooTN-oHSXO1O-39" value="- delay : int" style="text;align=left;verticalAlign=top;spacingLeft=4;spacingRight=4;overflow=hidden;rotatable=0;points=[[0,0.5],[1,0.5]];portConstraint=eastwest;rounded=0;shadow=0;html=0;glass=0;" parent="i-63GN7wooTN-oHSXO1O-38" vertex="1">
          <mxGeometry y="26" width="160" height="26" as="geometry" />
        </mxCell>
        <mxCell id="D1E1PHfLJZQOSFLsfM7y-189" value="- timer : Timer" style="text;align=left;verticalAlign=top;spacingLeft=4;spacingRight=4;overflow=hidden;rotatable=0;points=[[0,0.5],[1,0.5]];portConstraint=eastwest;rounded=0;shadow=0;html=0;" parent="i-63GN7wooTN-oHSXO1O-38" vertex="1">
          <mxGeometry y="52" width="160" height="26" as="geometry" />
        </mxCell>
        <mxCell id="D1E1PHfLJZQOSFLsfM7y-190" value="# frame : CarView" style="text;align=left;verticalAlign=top;spacingLeft=4;spacingRight=4;overflow=hidden;rotatable=0;points=[[0,0.5],[1,0.5]];portConstraint=eastwest;rounded=0;shadow=0;html=0;" parent="i-63GN7wooTN-oHSXO1O-38" vertex="1">
          <mxGeometry y="78" width="160" height="26" as="geometry" />
        </mxCell>
        <mxCell id="D1E1PHfLJZQOSFLsfM7y-191" value="# cars : ArrayList&lt;Car&gt;" style="text;align=left;verticalAlign=top;spacingLeft=4;spacingRight=4;overflow=hidden;rotatable=0;points=[[0,0.5],[1,0.5]];portConstraint=eastwest;rounded=0;shadow=0;html=0;" parent="i-63GN7wooTN-oHSXO1O-38" vertex="1">
          <mxGeometry y="104" width="160" height="26" as="geometry" />
        </mxCell>
        <mxCell id="i-63GN7wooTN-oHSXO1O-40" value="" style="line;html=1;strokeWidth=1;align=left;verticalAlign=middle;spacingTop=-1;spacingLeft=3;spacingRight=3;rotatable=0;labelPosition=right;points=[];portConstraint=eastwest;" parent="i-63GN7wooTN-oHSXO1O-38" vertex="1">
          <mxGeometry y="130" width="160" height="8" as="geometry" />
        </mxCell>
        <mxCell id="i-63GN7wooTN-oHSXO1O-41" value="+ main(String[]) : void" style="text;align=left;verticalAlign=top;spacingLeft=4;spacingRight=4;overflow=hidden;rotatable=0;points=[[0,0.5],[1,0.5]];portConstraint=eastwest;" parent="i-63GN7wooTN-oHSXO1O-38" vertex="1">
          <mxGeometry y="138" width="160" height="26" as="geometry" />
        </mxCell>
        <mxCell id="D1E1PHfLJZQOSFLsfM7y-293" value="# brake(int) : void" style="text;align=left;verticalAlign=top;spacingLeft=4;spacingRight=4;overflow=hidden;rotatable=0;points=[[0,0.5],[1,0.5]];portConstraint=eastwest;" parent="i-63GN7wooTN-oHSXO1O-38" vertex="1">
          <mxGeometry y="164" width="160" height="26" as="geometry" />
        </mxCell>
        <mxCell id="D1E1PHfLJZQOSFLsfM7y-292" value="# gas(int) : void" style="text;align=left;verticalAlign=top;spacingLeft=4;spacingRight=4;overflow=hidden;rotatable=0;points=[[0,0.5],[1,0.5]];portConstraint=eastwest;" parent="i-63GN7wooTN-oHSXO1O-38" vertex="1">
          <mxGeometry y="190" width="160" height="26" as="geometry" />
        </mxCell>
        <mxCell id="D1E1PHfLJZQOSFLsfM7y-294" value="# start() : void" style="text;align=left;verticalAlign=top;spacingLeft=4;spacingRight=4;overflow=hidden;rotatable=0;points=[[0,0.5],[1,0.5]];portConstraint=eastwest;" parent="i-63GN7wooTN-oHSXO1O-38" vertex="1">
          <mxGeometry y="216" width="160" height="26" as="geometry" />
        </mxCell>
        <mxCell id="i-63GN7wooTN-oHSXO1O-54" style="edgeStyle=orthogonalEdgeStyle;rounded=0;orthogonalLoop=1;jettySize=auto;html=1;entryX=0.5;entryY=1;entryDx=0;entryDy=0;endArrow=block;endFill=0;exitX=0.5;exitY=0;exitDx=0;exitDy=0;" parent="WIyWlLk6GJQsqaUBKTNV-1" source="i-63GN7wooTN-oHSXO1O-42" target="i-63GN7wooTN-oHSXO1O-50" edge="1">
          <mxGeometry relative="1" as="geometry">
            <Array as="points" />
            <mxPoint x="1220" y="290" as="sourcePoint" />
          </mxGeometry>
        </mxCell>
        <mxCell id="D1E1PHfLJZQOSFLsfM7y-16" style="edgeStyle=orthogonalEdgeStyle;rounded=0;orthogonalLoop=1;jettySize=auto;html=1;endArrow=diamondThin;endFill=0;endSize=12;exitX=0;exitY=0.5;exitDx=0;exitDy=0;entryX=1;entryY=0.5;entryDx=0;entryDy=0;" parent="WIyWlLk6GJQsqaUBKTNV-1" source="i-63GN7wooTN-oHSXO1O-46" target="i-63GN7wooTN-oHSXO1O-42" edge="1">
          <mxGeometry relative="1" as="geometry">
            <mxPoint x="1340" y="470" as="targetPoint" />
          </mxGeometry>
        </mxCell>
        <mxCell id="D1E1PHfLJZQOSFLsfM7y-79" style="edgeStyle=orthogonalEdgeStyle;rounded=0;orthogonalLoop=1;jettySize=auto;html=1;exitX=0.708;exitY=1.008;exitDx=0;exitDy=0;entryX=0.75;entryY=0;entryDx=0;entryDy=0;endArrow=diamondThin;endFill=1;endSize=12;exitPerimeter=0;" parent="WIyWlLk6GJQsqaUBKTNV-1" source="D1E1PHfLJZQOSFLsfM7y-299" target="i-63GN7wooTN-oHSXO1O-38" edge="1">
          <mxGeometry relative="1" as="geometry" />
        </mxCell>
        <mxCell id="X8JtoUonFGgAs8ObLpeT-28" style="edgeStyle=orthogonalEdgeStyle;rounded=0;orthogonalLoop=1;jettySize=auto;html=1;entryX=0.25;entryY=0;entryDx=0;entryDy=0;endArrow=diamondThin;endFill=0;endSize=12;" parent="WIyWlLk6GJQsqaUBKTNV-1" source="i-63GN7wooTN-oHSXO1O-42" target="D1E1PHfLJZQOSFLsfM7y-86" edge="1">
          <mxGeometry relative="1" as="geometry" />
        </mxCell>
        <mxCell id="i-63GN7wooTN-oHSXO1O-42" value="CarView" style="swimlane;fontStyle=0;align=center;verticalAlign=top;childLayout=stackLayout;horizontal=1;startSize=26;horizontalStack=0;resizeParent=1;resizeLast=0;collapsible=1;marginBottom=0;rounded=0;shadow=0;strokeWidth=1;" parent="WIyWlLk6GJQsqaUBKTNV-1" vertex="1">
          <mxGeometry x="1140" y="328" width="190" height="216" as="geometry">
            <mxRectangle x="550" y="140" width="160" height="26" as="alternateBounds" />
          </mxGeometry>
        </mxCell>
        <mxCell id="i-63GN7wooTN-oHSXO1O-43" value="- X : int" style="text;align=left;verticalAlign=top;spacingLeft=4;spacingRight=4;overflow=hidden;rotatable=0;points=[[0,0.5],[1,0.5]];portConstraint=eastwest;rounded=0;shadow=0;html=0;" parent="i-63GN7wooTN-oHSXO1O-42" vertex="1">
          <mxGeometry y="26" width="190" height="26" as="geometry" />
        </mxCell>
        <mxCell id="D1E1PHfLJZQOSFLsfM7y-192" value="- Y : int" style="text;align=left;verticalAlign=top;spacingLeft=4;spacingRight=4;overflow=hidden;rotatable=0;points=[[0,0.5],[1,0.5]];portConstraint=eastwest;rounded=0;shadow=0;html=0;" parent="i-63GN7wooTN-oHSXO1O-42" vertex="1">
          <mxGeometry y="52" width="190" height="26" as="geometry" />
        </mxCell>
        <mxCell id="D1E1PHfLJZQOSFLsfM7y-193" value="# carC : CarCntroller" style="text;align=left;verticalAlign=top;spacingLeft=4;spacingRight=4;overflow=hidden;rotatable=0;points=[[0,0.5],[1,0.5]];portConstraint=eastwest;rounded=0;shadow=0;html=0;" parent="i-63GN7wooTN-oHSXO1O-42" vertex="1">
          <mxGeometry y="78" width="190" height="26" as="geometry" />
        </mxCell>
        <mxCell id="D1E1PHfLJZQOSFLsfM7y-195" value="# drawPanel : DrawPanel" style="text;align=left;verticalAlign=top;spacingLeft=4;spacingRight=4;overflow=hidden;rotatable=0;points=[[0,0.5],[1,0.5]];portConstraint=eastwest;rounded=0;shadow=0;html=0;" parent="i-63GN7wooTN-oHSXO1O-42" vertex="1">
          <mxGeometry y="104" width="190" height="26" as="geometry" />
        </mxCell>
        <mxCell id="D1E1PHfLJZQOSFLsfM7y-196" value="# controlPanel : JPanel" style="text;align=left;verticalAlign=top;spacingLeft=4;spacingRight=4;overflow=hidden;rotatable=0;points=[[0,0.5],[1,0.5]];portConstraint=eastwest;rounded=0;shadow=0;html=0;" parent="i-63GN7wooTN-oHSXO1O-42" vertex="1">
          <mxGeometry y="130" width="190" height="26" as="geometry" />
        </mxCell>
        <mxCell id="i-63GN7wooTN-oHSXO1O-44" value="" style="line;html=1;strokeWidth=1;align=left;verticalAlign=middle;spacingTop=-1;spacingLeft=3;spacingRight=3;rotatable=0;labelPosition=right;points=[];portConstraint=eastwest;" parent="i-63GN7wooTN-oHSXO1O-42" vertex="1">
          <mxGeometry y="156" width="190" height="8" as="geometry" />
        </mxCell>
        <mxCell id="i-63GN7wooTN-oHSXO1O-45" value="+ CarView(String, CarController)" style="text;align=left;verticalAlign=top;spacingLeft=4;spacingRight=4;overflow=hidden;rotatable=0;points=[[0,0.5],[1,0.5]];portConstraint=eastwest;" parent="i-63GN7wooTN-oHSXO1O-42" vertex="1">
          <mxGeometry y="164" width="190" height="26" as="geometry" />
        </mxCell>
        <mxCell id="D1E1PHfLJZQOSFLsfM7y-299" value="- initComponents(String) : void" style="text;align=left;verticalAlign=top;spacingLeft=4;spacingRight=4;overflow=hidden;rotatable=0;points=[[0,0.5],[1,0.5]];portConstraint=eastwest;" parent="i-63GN7wooTN-oHSXO1O-42" vertex="1">
          <mxGeometry y="190" width="190" height="26" as="geometry" />
        </mxCell>
        <mxCell id="D1E1PHfLJZQOSFLsfM7y-6" style="edgeStyle=orthogonalEdgeStyle;rounded=0;orthogonalLoop=1;jettySize=auto;html=1;entryX=0.5;entryY=1;entryDx=0;entryDy=0;endArrow=block;endFill=0;" parent="WIyWlLk6GJQsqaUBKTNV-1" source="i-63GN7wooTN-oHSXO1O-46" target="D1E1PHfLJZQOSFLsfM7y-2" edge="1">
          <mxGeometry relative="1" as="geometry" />
        </mxCell>
        <mxCell id="i-63GN7wooTN-oHSXO1O-46" value="DrawPanel" style="swimlane;fontStyle=0;align=center;verticalAlign=top;childLayout=stackLayout;horizontal=1;startSize=26;horizontalStack=0;resizeParent=1;resizeLast=0;collapsible=1;marginBottom=0;rounded=0;shadow=0;strokeWidth=1;" parent="WIyWlLk6GJQsqaUBKTNV-1" vertex="1">
          <mxGeometry x="1520" y="328" width="210" height="216" as="geometry">
            <mxRectangle x="550" y="140" width="160" height="26" as="alternateBounds" />
          </mxGeometry>
        </mxCell>
        <mxCell id="i-63GN7wooTN-oHSXO1O-47" value="# backgroundImage : BufferedImage " style="text;align=left;verticalAlign=top;spacingLeft=4;spacingRight=4;overflow=hidden;rotatable=0;points=[[0,0.5],[1,0.5]];portConstraint=eastwest;rounded=0;shadow=0;html=0;" parent="i-63GN7wooTN-oHSXO1O-46" vertex="1">
          <mxGeometry y="26" width="210" height="26" as="geometry" />
        </mxCell>
        <mxCell id="D1E1PHfLJZQOSFLsfM7y-197" value="# volvoImage : BufferedImage" style="text;align=left;verticalAlign=top;spacingLeft=4;spacingRight=4;overflow=hidden;rotatable=0;points=[[0,0.5],[1,0.5]];portConstraint=eastwest;rounded=0;shadow=0;html=0;" parent="i-63GN7wooTN-oHSXO1O-46" vertex="1">
          <mxGeometry y="52" width="210" height="26" as="geometry" />
        </mxCell>
        <mxCell id="D1E1PHfLJZQOSFLsfM7y-198" value="# volovPoint : Point" style="text;align=left;verticalAlign=top;spacingLeft=4;spacingRight=4;overflow=hidden;rotatable=0;points=[[0,0.5],[1,0.5]];portConstraint=eastwest;rounded=0;shadow=0;html=0;" parent="i-63GN7wooTN-oHSXO1O-46" vertex="1">
          <mxGeometry y="78" width="210" height="26" as="geometry" />
        </mxCell>
        <mxCell id="i-63GN7wooTN-oHSXO1O-48" value="" style="line;html=1;strokeWidth=1;align=left;verticalAlign=middle;spacingTop=-1;spacingLeft=3;spacingRight=3;rotatable=0;labelPosition=right;points=[];portConstraint=eastwest;" parent="i-63GN7wooTN-oHSXO1O-46" vertex="1">
          <mxGeometry y="104" width="210" height="8" as="geometry" />
        </mxCell>
        <mxCell id="D1E1PHfLJZQOSFLsfM7y-300" value="+ DrawPanel(int, int)" style="text;align=left;verticalAlign=top;spacingLeft=4;spacingRight=4;overflow=hidden;rotatable=0;points=[[0,0.5],[1,0.5]];portConstraint=eastwest;" parent="i-63GN7wooTN-oHSXO1O-46" vertex="1">
          <mxGeometry y="112" width="210" height="26" as="geometry" />
        </mxCell>
        <mxCell id="i-63GN7wooTN-oHSXO1O-49" value="# paintComponent(Graphics) : void" style="text;align=left;verticalAlign=top;spacingLeft=4;spacingRight=4;overflow=hidden;rotatable=0;points=[[0,0.5],[1,0.5]];portConstraint=eastwest;" parent="i-63GN7wooTN-oHSXO1O-46" vertex="1">
          <mxGeometry y="138" width="210" height="26" as="geometry" />
        </mxCell>
        <mxCell id="D1E1PHfLJZQOSFLsfM7y-11" style="edgeStyle=orthogonalEdgeStyle;rounded=0;orthogonalLoop=1;jettySize=auto;html=1;entryX=0.5;entryY=1;entryDx=0;entryDy=0;endArrow=block;endFill=0;" parent="WIyWlLk6GJQsqaUBKTNV-1" source="i-63GN7wooTN-oHSXO1O-50" target="D1E1PHfLJZQOSFLsfM7y-7" edge="1">
          <mxGeometry relative="1" as="geometry">
            <mxPoint x="1220" y="90" as="targetPoint" />
            <Array as="points">
              <mxPoint x="1235" y="110" />
              <mxPoint x="1440" y="110" />
            </Array>
          </mxGeometry>
        </mxCell>
        <mxCell id="i-63GN7wooTN-oHSXO1O-50" value="JFrame" style="swimlane;fontStyle=0;align=center;verticalAlign=top;childLayout=stackLayout;horizontal=1;startSize=216;horizontalStack=0;resizeParent=1;resizeLast=0;collapsible=1;marginBottom=0;rounded=0;shadow=0;strokeWidth=1;" parent="WIyWlLk6GJQsqaUBKTNV-1" vertex="1">
          <mxGeometry x="1155" y="178" width="160" height="32" as="geometry">
            <mxRectangle x="550" y="140" width="160" height="26" as="alternateBounds" />
          </mxGeometry>
        </mxCell>
        <mxCell id="D1E1PHfLJZQOSFLsfM7y-12" style="edgeStyle=orthogonalEdgeStyle;rounded=0;orthogonalLoop=1;jettySize=auto;html=1;entryX=0.5;entryY=1;entryDx=0;entryDy=0;endArrow=block;endFill=0;exitX=0.5;exitY=0;exitDx=0;exitDy=0;" parent="WIyWlLk6GJQsqaUBKTNV-1" source="D1E1PHfLJZQOSFLsfM7y-2" target="D1E1PHfLJZQOSFLsfM7y-7" edge="1">
          <mxGeometry relative="1" as="geometry">
            <mxPoint x="1220" y="70" as="targetPoint" />
            <Array as="points">
              <mxPoint x="1625" y="110" />
              <mxPoint x="1440" y="110" />
            </Array>
          </mxGeometry>
        </mxCell>
        <mxCell id="D1E1PHfLJZQOSFLsfM7y-20" style="edgeStyle=orthogonalEdgeStyle;rounded=0;orthogonalLoop=1;jettySize=auto;html=1;entryX=1;entryY=0.5;entryDx=0;entryDy=0;endArrow=diamondThin;endFill=0;endSize=12;" parent="WIyWlLk6GJQsqaUBKTNV-1" source="D1E1PHfLJZQOSFLsfM7y-2" target="i-63GN7wooTN-oHSXO1O-43" edge="1">
          <mxGeometry relative="1" as="geometry">
            <Array as="points">
              <mxPoint x="1440" y="190" />
              <mxPoint x="1440" y="367" />
            </Array>
          </mxGeometry>
        </mxCell>
        <mxCell id="D1E1PHfLJZQOSFLsfM7y-2" value="JPanel" style="swimlane;fontStyle=0;align=center;verticalAlign=top;childLayout=stackLayout;horizontal=1;startSize=32;horizontalStack=0;resizeParent=1;resizeLast=0;collapsible=1;marginBottom=0;rounded=0;shadow=0;strokeWidth=1;" parent="WIyWlLk6GJQsqaUBKTNV-1" vertex="1">
          <mxGeometry x="1545" y="178" width="160" height="32" as="geometry">
            <mxRectangle x="550" y="140" width="160" height="26" as="alternateBounds" />
          </mxGeometry>
        </mxCell>
        <mxCell id="D1E1PHfLJZQOSFLsfM7y-7" value="JComponent" style="swimlane;fontStyle=2;align=center;verticalAlign=top;childLayout=stackLayout;horizontal=1;startSize=216;horizontalStack=0;resizeParent=1;resizeLast=0;collapsible=1;marginBottom=0;rounded=0;shadow=0;strokeWidth=1;fillColor=#dae8fc;strokeColor=#6c8ebf;" parent="WIyWlLk6GJQsqaUBKTNV-1" vertex="1">
          <mxGeometry x="1360" y="31" width="160" height="29" as="geometry">
            <mxRectangle x="550" y="140" width="160" height="26" as="alternateBounds" />
          </mxGeometry>
        </mxCell>
        <mxCell id="D1E1PHfLJZQOSFLsfM7y-84" style="edgeStyle=orthogonalEdgeStyle;rounded=0;orthogonalLoop=1;jettySize=auto;html=1;entryX=0.5;entryY=1;entryDx=0;entryDy=0;endArrow=diamondThin;endFill=1;endSize=12;" parent="WIyWlLk6GJQsqaUBKTNV-1" source="D1E1PHfLJZQOSFLsfM7y-80" target="i-63GN7wooTN-oHSXO1O-38" edge="1">
          <mxGeometry relative="1" as="geometry" />
        </mxCell>
        <mxCell id="D1E1PHfLJZQOSFLsfM7y-80" value="Timer" style="swimlane;fontStyle=0;align=center;verticalAlign=top;childLayout=stackLayout;horizontal=1;startSize=26;horizontalStack=0;resizeParent=1;resizeLast=0;collapsible=1;marginBottom=0;rounded=0;shadow=0;strokeWidth=1;" parent="WIyWlLk6GJQsqaUBKTNV-1" vertex="1">
          <mxGeometry x="1155" y="960" width="160" height="60" as="geometry">
            <mxRectangle x="550" y="140" width="160" height="26" as="alternateBounds" />
          </mxGeometry>
        </mxCell>
        <mxCell id="D1E1PHfLJZQOSFLsfM7y-83" value="+ Timer(int, TimerListener)" style="text;align=left;verticalAlign=top;spacingLeft=4;spacingRight=4;overflow=hidden;rotatable=0;points=[[0,0.5],[1,0.5]];portConstraint=eastwest;" parent="D1E1PHfLJZQOSFLsfM7y-80" vertex="1">
          <mxGeometry y="26" width="160" height="26" as="geometry" />
        </mxCell>
        <mxCell id="X8JtoUonFGgAs8ObLpeT-15" style="edgeStyle=orthogonalEdgeStyle;rounded=0;orthogonalLoop=1;jettySize=auto;html=1;entryX=0;entryY=0.5;entryDx=0;entryDy=0;startArrow=circlePlus;startFill=0;" parent="WIyWlLk6GJQsqaUBKTNV-1" source="D1E1PHfLJZQOSFLsfM7y-86" target="D1E1PHfLJZQOSFLsfM7y-293" edge="1">
          <mxGeometry relative="1" as="geometry" />
        </mxCell>
        <mxCell id="D1E1PHfLJZQOSFLsfM7y-86" value="TimerListener" style="swimlane;fontStyle=0;align=center;verticalAlign=top;childLayout=stackLayout;horizontal=1;startSize=26;horizontalStack=0;resizeParent=1;resizeLast=0;collapsible=1;marginBottom=0;rounded=0;shadow=0;strokeWidth=1;" parent="WIyWlLk6GJQsqaUBKTNV-1" vertex="1">
          <mxGeometry x="860" y="960" width="230" height="60" as="geometry">
            <mxRectangle x="550" y="140" width="160" height="26" as="alternateBounds" />
          </mxGeometry>
        </mxCell>
        <mxCell id="D1E1PHfLJZQOSFLsfM7y-89" value="+ actionPerformed(ActionEvent) :  void" style="text;align=left;verticalAlign=top;spacingLeft=4;spacingRight=4;overflow=hidden;rotatable=0;points=[[0,0.5],[1,0.5]];portConstraint=eastwest;" parent="D1E1PHfLJZQOSFLsfM7y-86" vertex="1">
          <mxGeometry y="26" width="230" height="26" as="geometry" />
        </mxCell>
        <mxCell id="X8JtoUonFGgAs8ObLpeT-24" style="edgeStyle=orthogonalEdgeStyle;rounded=0;orthogonalLoop=1;jettySize=auto;html=1;entryX=0;entryY=0.5;entryDx=0;entryDy=0;dashed=1;dashPattern=8 8;endArrow=block;endFill=0;" parent="WIyWlLk6GJQsqaUBKTNV-1" source="X8JtoUonFGgAs8ObLpeT-20" target="D1E1PHfLJZQOSFLsfM7y-89" edge="1">
          <mxGeometry relative="1" as="geometry">
            <mxPoint x="1020" y="390" as="targetPoint" />
            <Array as="points">
              <mxPoint x="750" y="999" />
              <mxPoint x="750" y="999" />
            </Array>
          </mxGeometry>
        </mxCell>
        <mxCell id="X8JtoUonFGgAs8ObLpeT-20" value="&lt;&lt;interface&gt;&gt;&#xa;ActionListener " style="swimlane;fontStyle=2;align=center;verticalAlign=top;childLayout=stackLayout;horizontal=1;startSize=40;horizontalStack=0;resizeParent=1;resizeLast=0;collapsible=1;marginBottom=0;rounded=0;shadow=0;strokeWidth=1;fillColor=#d5e8d4;strokeColor=#82b366;" parent="WIyWlLk6GJQsqaUBKTNV-1" vertex="1">
          <mxGeometry x="520" y="950" width="190" height="80" as="geometry">
            <mxRectangle x="230" y="140" width="160" height="26" as="alternateBounds" />
          </mxGeometry>
        </mxCell>
        <mxCell id="X8JtoUonFGgAs8ObLpeT-21" value="actionPerformed(ActionEvent e) &#xa;: void" style="text;align=left;verticalAlign=top;spacingLeft=4;spacingRight=4;overflow=hidden;rotatable=0;points=[[0,0.5],[1,0.5]];portConstraint=eastwest;" parent="X8JtoUonFGgAs8ObLpeT-20" vertex="1">
          <mxGeometry y="40" width="190" height="40" as="geometry" />
        </mxCell>
      </root>
    </mxGraphModel>
  </diagram>
</mxfile>
